<mxfile host="Electron" agent="Mozilla/5.0 (Windows NT 10.0; Win64; x64) AppleWebKit/537.36 (KHTML, like Gecko) draw.io/28.2.5 Chrome/138.0.7204.251 Electron/37.6.1 Safari/537.36" version="28.2.5" pages="4">
  <diagram name="Page-1" id="3v4THKnflRas1y2UPz2P">
    <mxGraphModel dx="2377" dy="1482" grid="1" gridSize="10" guides="1" tooltips="1" connect="1" arrows="1" fold="1" page="1" pageScale="1" pageWidth="1100" pageHeight="850" math="0" shadow="0">
      <root>
        <mxCell id="0" />
        <mxCell id="1" parent="0" />
        <mxCell id="-3jr-mdi6pYV8UNn25hZ-1" value="" style="rounded=0;whiteSpace=wrap;html=1;fillColor=none;strokeWidth=3;dashed=1;movable=1;resizable=1;rotatable=1;deletable=1;editable=1;locked=0;connectable=1;" parent="1" vertex="1">
          <mxGeometry x="70" y="150" width="170" height="410" as="geometry" />
        </mxCell>
        <mxCell id="-3jr-mdi6pYV8UNn25hZ-2" value="Sources" style="rounded=0;whiteSpace=wrap;html=1;strokeColor=none;fontSize=16;" parent="1" vertex="1">
          <mxGeometry x="95" y="120" width="120" height="60" as="geometry" />
        </mxCell>
        <mxCell id="-3jr-mdi6pYV8UNn25hZ-8" value="" style="rounded=0;whiteSpace=wrap;html=1;fillColor=none;strokeWidth=3;dashed=1;movable=0;resizable=0;rotatable=0;deletable=0;editable=0;locked=1;connectable=0;" parent="1" vertex="1">
          <mxGeometry x="280" y="150" width="520" height="410" as="geometry" />
        </mxCell>
        <mxCell id="-3jr-mdi6pYV8UNn25hZ-9" value="Data Warehouse" style="rounded=0;whiteSpace=wrap;html=1;strokeColor=none;fontSize=16;" parent="1" vertex="1">
          <mxGeometry x="420" y="120" width="240" height="60" as="geometry" />
        </mxCell>
        <mxCell id="-3jr-mdi6pYV8UNn25hZ-10" value="" style="rounded=0;whiteSpace=wrap;html=1;fillColor=none;strokeWidth=3;dashed=1;movable=0;resizable=0;rotatable=0;deletable=0;editable=0;locked=1;connectable=0;" parent="1" vertex="1">
          <mxGeometry x="850" y="150" width="170" height="410" as="geometry" />
        </mxCell>
        <mxCell id="-3jr-mdi6pYV8UNn25hZ-11" value="Consume" style="rounded=0;whiteSpace=wrap;html=1;strokeColor=none;fontSize=16;" parent="1" vertex="1">
          <mxGeometry x="875" y="120" width="120" height="60" as="geometry" />
        </mxCell>
        <mxCell id="-3jr-mdi6pYV8UNn25hZ-12" value="Bronze layer" style="rounded=0;whiteSpace=wrap;html=1;fillStyle=solid;" parent="1" vertex="1">
          <mxGeometry x="320" y="190" width="110" height="20" as="geometry" />
        </mxCell>
        <mxCell id="-3jr-mdi6pYV8UNn25hZ-13" value="" style="rounded=0;whiteSpace=wrap;html=1;fillStyle=solid;" parent="1" vertex="1">
          <mxGeometry x="320" y="210" width="110" height="320" as="geometry" />
        </mxCell>
        <mxCell id="-3jr-mdi6pYV8UNn25hZ-14" value="" style="rounded=0;whiteSpace=wrap;html=1;fillStyle=solid;" parent="1" vertex="1">
          <mxGeometry x="495" y="210" width="110" height="320" as="geometry" />
        </mxCell>
        <mxCell id="-3jr-mdi6pYV8UNn25hZ-15" value="Silver layer" style="rounded=0;whiteSpace=wrap;html=1;fillStyle=solid;" parent="1" vertex="1">
          <mxGeometry x="495" y="190" width="110" height="20" as="geometry" />
        </mxCell>
        <mxCell id="-3jr-mdi6pYV8UNn25hZ-16" value="" style="rounded=0;whiteSpace=wrap;html=1;fillStyle=solid;" parent="1" vertex="1">
          <mxGeometry x="658" y="210" width="110" height="320" as="geometry" />
        </mxCell>
        <mxCell id="-3jr-mdi6pYV8UNn25hZ-17" value="Gold layer" style="rounded=0;whiteSpace=wrap;html=1;fillStyle=solid;" parent="1" vertex="1">
          <mxGeometry x="658" y="190" width="110" height="20" as="geometry" />
        </mxCell>
        <mxCell id="-3jr-mdi6pYV8UNn25hZ-19" value="CRM" style="image;aspect=fixed;html=1;points=[];align=center;fontSize=12;image=img/lib/azure2/general/Folder_Blank.svg;" parent="1" vertex="1">
          <mxGeometry x="120.5" y="239.99999999999997" width="69" height="56.00000000000001" as="geometry" />
        </mxCell>
        <mxCell id="-3jr-mdi6pYV8UNn25hZ-20" value="" style="image;aspect=fixed;html=1;points=[];align=center;fontSize=12;image=img/lib/azure2/general/Files.svg;" parent="1" vertex="1">
          <mxGeometry x="170" y="273.26" width="28.64" height="31.33" as="geometry" />
        </mxCell>
        <mxCell id="-3jr-mdi6pYV8UNn25hZ-22" value="ERP" style="image;aspect=fixed;html=1;points=[];align=center;fontSize=12;image=img/lib/azure2/general/Folder_Blank.svg;" parent="1" vertex="1">
          <mxGeometry x="120.5" y="330" width="69" height="56.00000000000001" as="geometry" />
        </mxCell>
        <mxCell id="-3jr-mdi6pYV8UNn25hZ-21" value="" style="image;aspect=fixed;html=1;points=[];align=center;fontSize=12;image=img/lib/azure2/general/Files.svg;" parent="1" vertex="1">
          <mxGeometry x="170" y="363.26000000000005" width="28.64" height="31.33" as="geometry" />
        </mxCell>
        <mxCell id="-3jr-mdi6pYV8UNn25hZ-24" value="" style="endArrow=none;html=1;rounded=0;" parent="1" edge="1">
          <mxGeometry width="50" height="50" relative="1" as="geometry">
            <mxPoint x="120" y="440" as="sourcePoint" />
            <mxPoint x="200" y="440" as="targetPoint" />
          </mxGeometry>
        </mxCell>
        <mxCell id="-3jr-mdi6pYV8UNn25hZ-25" value="&lt;b&gt;Object type&lt;/b&gt;: CSV Files&lt;div&gt;&lt;br&gt;&lt;div&gt;&lt;b&gt;Interface&lt;/b&gt;: Files in Folder&lt;/div&gt;&lt;/div&gt;" style="text;html=1;align=left;verticalAlign=middle;whiteSpace=wrap;rounded=0;fontSize=6;" parent="1" vertex="1">
          <mxGeometry x="120.5" y="440" width="79.5" height="30" as="geometry" />
        </mxCell>
        <mxCell id="-3jr-mdi6pYV8UNn25hZ-26" value="Raw Data" style="html=1;verticalLabelPosition=bottom;align=center;labelBackgroundColor=none;verticalAlign=top;strokeWidth=2;strokeColor=#d6b656;shadow=0;dashed=0;shape=mxgraph.ios7.icons.data;fillColor=default;" parent="1" vertex="1">
          <mxGeometry x="354.38" y="250" width="41.24" height="50" as="geometry" />
        </mxCell>
        <mxCell id="-3jr-mdi6pYV8UNn25hZ-27" value="Cleaned,&amp;nbsp;&lt;div&gt;Standardized Data&lt;/div&gt;" style="html=1;verticalLabelPosition=bottom;align=center;labelBackgroundColor=none;verticalAlign=top;strokeWidth=2;strokeColor=#314354;shadow=0;dashed=0;shape=mxgraph.ios7.icons.data;fillColor=#647687;fontColor=#ffffff;" parent="1" vertex="1">
          <mxGeometry x="529" y="250" width="41.24" height="50" as="geometry" />
        </mxCell>
        <mxCell id="-3jr-mdi6pYV8UNn25hZ-28" value="Business-Ready&lt;div&gt;Data&lt;/div&gt;" style="html=1;verticalLabelPosition=bottom;align=center;labelBackgroundColor=none;verticalAlign=top;strokeWidth=2;strokeColor=#B09500;shadow=0;dashed=0;shape=mxgraph.ios7.icons.data;fillColor=#e3c800;fontColor=#FFFFFF;" parent="1" vertex="1">
          <mxGeometry x="692.38" y="250" width="41.24" height="50" as="geometry" />
        </mxCell>
        <mxCell id="-3jr-mdi6pYV8UNn25hZ-29" value="" style="shape=flexArrow;endArrow=classic;html=1;rounded=0;entryX=0.182;entryY=0.438;entryDx=0;entryDy=0;entryPerimeter=0;fillColor=#dae8fc;gradientColor=#7ea6e0;strokeColor=#6c8ebf;" parent="1" edge="1">
          <mxGeometry width="50" height="50" relative="1" as="geometry">
            <mxPoint x="260" y="276.74" as="sourcePoint" />
            <mxPoint x="350.04999999999995" y="276.8200000000001" as="targetPoint" />
          </mxGeometry>
        </mxCell>
        <mxCell id="-3jr-mdi6pYV8UNn25hZ-30" value="" style="shape=flexArrow;endArrow=classic;html=1;rounded=0;entryX=0.182;entryY=0.438;entryDx=0;entryDy=0;entryPerimeter=0;fillColor=#dae8fc;gradientColor=#7ea6e0;strokeColor=#6c8ebf;" parent="1" edge="1">
          <mxGeometry width="50" height="50" relative="1" as="geometry">
            <mxPoint x="420" y="276.74" as="sourcePoint" />
            <mxPoint x="510.04999999999995" y="276.8200000000001" as="targetPoint" />
          </mxGeometry>
        </mxCell>
        <mxCell id="-3jr-mdi6pYV8UNn25hZ-31" value="" style="shape=flexArrow;endArrow=classic;html=1;rounded=0;entryX=0.182;entryY=0.438;entryDx=0;entryDy=0;entryPerimeter=0;fillColor=#dae8fc;gradientColor=#7ea6e0;strokeColor=#6c8ebf;" parent="1" edge="1">
          <mxGeometry width="50" height="50" relative="1" as="geometry">
            <mxPoint x="590" y="276.74" as="sourcePoint" />
            <mxPoint x="680.05" y="276.8200000000001" as="targetPoint" />
          </mxGeometry>
        </mxCell>
        <mxCell id="-3jr-mdi6pYV8UNn25hZ-33" value="" style="shape=flexArrow;endArrow=classic;html=1;rounded=0;entryX=0.182;entryY=0.438;entryDx=0;entryDy=0;entryPerimeter=0;fillColor=#dae8fc;gradientColor=#7ea6e0;strokeColor=#6c8ebf;" parent="1" edge="1">
          <mxGeometry width="50" height="50" relative="1" as="geometry">
            <mxPoint x="790" y="276.74" as="sourcePoint" />
            <mxPoint x="880.05" y="276.8200000000001" as="targetPoint" />
          </mxGeometry>
        </mxCell>
        <mxCell id="-3jr-mdi6pYV8UNn25hZ-38" value="" style="endArrow=none;html=1;rounded=0;exitX=-0.007;exitY=-0.004;exitDx=0;exitDy=0;exitPerimeter=0;entryX=1;entryY=0;entryDx=0;entryDy=0;" parent="1" source="-3jr-mdi6pYV8UNn25hZ-39" target="-3jr-mdi6pYV8UNn25hZ-39" edge="1">
          <mxGeometry width="50" height="50" relative="1" as="geometry">
            <mxPoint x="335" y="410" as="sourcePoint" />
            <mxPoint x="415" y="410" as="targetPoint" />
          </mxGeometry>
        </mxCell>
        <mxCell id="-3jr-mdi6pYV8UNn25hZ-39" value="&lt;div style=&quot;line-height: 110%;&quot;&gt;&lt;span&gt;&lt;b&gt;Object type&lt;/b&gt;&lt;/span&gt;: Tables&lt;div&gt;&lt;br&gt;&lt;div&gt;&lt;span&gt;&lt;b&gt;Load&lt;/b&gt;:&lt;br&gt;&lt;/span&gt;&lt;/div&gt;&lt;/div&gt;&lt;ul style=&quot;padding-bottom: 0px; padding-left: 20px;&quot;&gt;&lt;li&gt;&lt;span style=&quot;background-color: transparent; color: light-dark(rgb(0, 0, 0), rgb(255, 255, 255));&quot;&gt;&lt;font&gt;Batch processing&lt;/font&gt;&lt;/span&gt;&lt;/li&gt;&lt;li&gt;&lt;span style=&quot;background-color: transparent; color: light-dark(rgb(0, 0, 0), rgb(255, 255, 255));&quot;&gt;&lt;font&gt;Ful load&lt;/font&gt;&lt;/span&gt;&lt;/li&gt;&lt;li&gt;&lt;span style=&quot;background-color: transparent; color: light-dark(rgb(0, 0, 0), rgb(255, 255, 255));&quot;&gt;&lt;font&gt;Truncate &amp;amp; insert&lt;/font&gt;&lt;/span&gt;&lt;/li&gt;&lt;/ul&gt;&lt;div&gt;&lt;div&gt;&lt;span&gt;No &lt;b&gt;Transformation&lt;/b&gt;&lt;/span&gt;&lt;/div&gt;&lt;div&gt;&lt;span&gt;&lt;br&gt;&lt;/span&gt;&lt;/div&gt;&lt;div&gt;&lt;span&gt;&lt;b&gt;Data Model&lt;/b&gt;: None (as-is)&lt;br&gt;&lt;/span&gt;&lt;/div&gt;&lt;/div&gt;&lt;/div&gt;" style="text;html=1;align=left;verticalAlign=top;rounded=0;fontSize=5;fontFamily=Verdana;fontStyle=0;spacing=0;labelBorderColor=none;spacingTop=0;" parent="1" vertex="1">
          <mxGeometry x="332.62" y="350" width="87.38" height="70" as="geometry" />
        </mxCell>
        <mxCell id="-3jr-mdi6pYV8UNn25hZ-40" value="" style="endArrow=none;html=1;rounded=0;exitX=-0.007;exitY=-0.004;exitDx=0;exitDy=0;exitPerimeter=0;entryX=1;entryY=0;entryDx=0;entryDy=0;" parent="1" source="-3jr-mdi6pYV8UNn25hZ-41" target="-3jr-mdi6pYV8UNn25hZ-41" edge="1">
          <mxGeometry width="50" height="50" relative="1" as="geometry">
            <mxPoint x="508.99" y="410" as="sourcePoint" />
            <mxPoint x="588.99" y="410" as="targetPoint" />
          </mxGeometry>
        </mxCell>
        <mxCell id="-3jr-mdi6pYV8UNn25hZ-41" value="&lt;div style=&quot;line-height: 110%;&quot;&gt;&lt;span&gt;&lt;b&gt;Object type&lt;/b&gt;&lt;/span&gt;: Tables&lt;div&gt;&lt;br&gt;&lt;div&gt;&lt;span&gt;&lt;b&gt;Load&lt;/b&gt;:&lt;br&gt;&lt;/span&gt;&lt;/div&gt;&lt;/div&gt;&lt;ul style=&quot;padding-bottom: 0px; padding-left: 20px;&quot;&gt;&lt;li&gt;&lt;span style=&quot;background-color: transparent; color: light-dark(rgb(0, 0, 0), rgb(255, 255, 255));&quot;&gt;&lt;font&gt;Batch processing&lt;/font&gt;&lt;/span&gt;&lt;/li&gt;&lt;li&gt;&lt;span style=&quot;background-color: transparent; color: light-dark(rgb(0, 0, 0), rgb(255, 255, 255));&quot;&gt;&lt;font&gt;Ful load&lt;/font&gt;&lt;/span&gt;&lt;/li&gt;&lt;li&gt;&lt;span style=&quot;background-color: transparent; color: light-dark(rgb(0, 0, 0), rgb(255, 255, 255));&quot;&gt;&lt;font&gt;Truncate &amp;amp; insert&lt;/font&gt;&lt;/span&gt;&lt;/li&gt;&lt;/ul&gt;&lt;div&gt;&lt;div&gt;&lt;span&gt;&lt;b&gt;Transformation&lt;/b&gt;&lt;/span&gt;&lt;/div&gt;&lt;div&gt;&lt;ul style=&quot;padding-left: 20px;&quot;&gt;&lt;li&gt;Data Cleansing&lt;/li&gt;&lt;li&gt;Data Standardization&lt;/li&gt;&lt;li&gt;Data Normalization&lt;/li&gt;&lt;li&gt;Derived Columns&lt;/li&gt;&lt;li&gt;Data Enrichments&lt;/li&gt;&lt;/ul&gt;&lt;/div&gt;&lt;div&gt;&lt;span&gt;&lt;br&gt;&lt;/span&gt;&lt;/div&gt;&lt;div&gt;&lt;span&gt;&lt;b&gt;Data Model&lt;/b&gt;: None (as-is)&lt;br&gt;&lt;/span&gt;&lt;/div&gt;&lt;/div&gt;&lt;/div&gt;" style="text;html=1;align=left;verticalAlign=top;rounded=0;fontSize=5;fontFamily=Verdana;fontStyle=0;spacing=0;labelBorderColor=none;spacingTop=0;" parent="1" vertex="1">
          <mxGeometry x="506" y="350" width="87.38" height="110" as="geometry" />
        </mxCell>
        <mxCell id="-3jr-mdi6pYV8UNn25hZ-44" value="&lt;div style=&quot;line-height: 110%;&quot;&gt;&lt;span&gt;&lt;b&gt;Object type&lt;/b&gt;&lt;/span&gt;: Views&lt;div&gt;&lt;br&gt;&lt;div&gt;No&amp;nbsp;&lt;b&gt;Load&lt;/b&gt;&lt;/div&gt;&lt;/div&gt;&lt;div&gt;&lt;b&gt;&lt;br&gt;&lt;/b&gt;&lt;/div&gt;&lt;div&gt;&lt;div&gt;&lt;span&gt;&lt;b&gt;Transformation&lt;/b&gt;&lt;/span&gt;&lt;/div&gt;&lt;div&gt;&lt;ul style=&quot;padding-left: 20px;&quot;&gt;&lt;li&gt;Data Integrations&lt;/li&gt;&lt;li&gt;Aggregations&lt;/li&gt;&lt;li&gt;Business Logics&lt;/li&gt;&lt;/ul&gt;&lt;/div&gt;&lt;div&gt;&lt;span&gt;&lt;br&gt;&lt;/span&gt;&lt;/div&gt;&lt;div&gt;&lt;span&gt;&lt;b&gt;Data Model&lt;/b&gt;:&amp;nbsp;&lt;/span&gt;&lt;/div&gt;&lt;/div&gt;&lt;div&gt;&lt;ul style=&quot;padding-left: 20px;&quot;&gt;&lt;li&gt;&lt;span&gt;Star schema&lt;/span&gt;&lt;/li&gt;&lt;li&gt;&lt;span&gt;Flat table&lt;/span&gt;&lt;/li&gt;&lt;li&gt;&lt;span&gt;Aggregated table&lt;/span&gt;&lt;/li&gt;&lt;/ul&gt;&lt;/div&gt;&lt;/div&gt;" style="text;html=1;align=left;verticalAlign=top;rounded=0;fontSize=5;fontFamily=Verdana;fontStyle=0;spacing=0;labelBorderColor=none;spacingTop=0;" parent="1" vertex="1">
          <mxGeometry x="669.31" y="350" width="87.38" height="110" as="geometry" />
        </mxCell>
        <mxCell id="-3jr-mdi6pYV8UNn25hZ-45" value="" style="endArrow=none;html=1;rounded=0;exitX=-0.007;exitY=-0.004;exitDx=0;exitDy=0;exitPerimeter=0;entryX=1;entryY=0;entryDx=0;entryDy=0;" parent="1" edge="1">
          <mxGeometry width="50" height="50" relative="1" as="geometry">
            <mxPoint x="669.31" y="349.77" as="sourcePoint" />
            <mxPoint x="757.31" y="349.77" as="targetPoint" />
          </mxGeometry>
        </mxCell>
        <mxCell id="-3jr-mdi6pYV8UNn25hZ-46" value="BI &amp;amp; Reporting" style="image;aspect=fixed;html=1;points=[];align=center;fontSize=12;image=img/lib/azure2/analytics/Power_BI_Embedded.svg;" parent="1" vertex="1">
          <mxGeometry x="918.87" y="210" width="32.25" height="43" as="geometry" />
        </mxCell>
        <mxCell id="-3jr-mdi6pYV8UNn25hZ-47" value="Ad-Hoc&lt;br&gt;SQL Queries" style="shadow=0;dashed=0;html=1;strokeColor=none;fillColor=#4495D1;labelPosition=center;verticalLabelPosition=bottom;verticalAlign=top;align=center;outlineConnect=0;shape=mxgraph.veeam.magnifying_glass;pointerEvents=1;" parent="1" vertex="1">
          <mxGeometry x="916.52" y="313.58" width="36.96" height="36.42" as="geometry" />
        </mxCell>
        <mxCell id="-3jr-mdi6pYV8UNn25hZ-48" value="Machine learning" style="editableCssRules=.*;html=1;shape=image;verticalLabelPosition=bottom;labelBackgroundColor=none;verticalAlign=top;aspect=fixed;imageAspect=0;image=data:image/svg+xml,PHN2ZyB4bWxucz0iaHR0cDovL3d3dy53My5vcmcvMjAwMC9zdmciIHhtbG5zOnY9Imh0dHBzOi8vdmVjdGEuaW8vbmFubyIgd2lkdGg9IjM2Mi4yMjI0NzgzNzUzNTMxNSIgaGVpZ2h0PSIzNzcuMzU5NDg0NzI1NTkyNSIgdmlld0JveD0iNjcuMzQ3OTk5NTcyNzUzOSAxMDguNjg4MDAzNTQwMDM5MDYgOTUuODM4MDA1MDY1OTE3OTcgOTkuODQzMDAyMzE5MzM1OTQiPiYjeGE7PHN0eWxlIHR5cGU9InRleHQvY3NzIj4mI3hhOwkuc3Qwe2ZpbGw6IzY2OWRmNjt9JiN4YTsJLnN0MXtmaWxsOiNhZWNiZmE7fSYjeGE7CS5zdDJ7ZmlsbDojNDI4NWY0O30mI3hhOzwvc3R5bGU+JiN4YTsJPHBhdGggY2xhc3M9InN0MCIgZD0iTTk2LjE5OSAxNzMuODAxdjI1Ljk5bDE5LjE4MSA4Ljc0di0yNS45MjZ6bTQuNzcxIDguNjYybDkuNjczIDQuNDA4djEyLjk4NWwtOS42NzMtNC4zNzV6bS00Ljc3MS0zOC45Njl2MjEuNjg2bDE5LjE4MSA4LjczMnYtMjEuNjg0bC00LjczNy0yLjA5NXYxNS4wNmwtOS42NzMtNC4zOTV2LTE1LjE3ek02Ny4zNDggMTMwLjMydjU2LjU1bDE5LjExNCA4Ljc4M3YtNTYuNjU4bC00LjczNC0yLjEyN3Y0OS45MDhsLTkuNTUzLTQuMzgxVjEzMi40OXoiLz4mI3hhOwk8cGF0aCBjbGFzcz0ic3QxIiBkPSJNOTYuMTE2IDExNy4zMTZsMTkuMjY0LTguNjI4IDQ3LjgwNiAyMS43NjMtMTguNzkgOC42MzJ6bTE5LjI2NCAzNC45MTJsLTE5LjE4MS04Ljc0NiAxOS4xODEtOC43MzkgMTkuMjE1IDguNzU5ek04Ni40NjIgMTM5LjA2bC0xOS4xMTQtOC43NDYgMTkuMTE0LTguNzM5IDE5LjM2MiA4Ljc1OXoiLz4mI3hhOwk8cGF0aCBjbGFzcz0ic3QyIiBkPSJNMTQ0LjM5NiAxNjAuNjEzdi0yMS41M2wxOC43OS04LjYzMnYyMS42NTd6TTExNS4zOCAxODIuNTNsNDcuODA2LTIxLjcxMnYyNS45MDRsLTQ3LjgwNiAyMS42MjZ6bTAtOC42MTh2LTIxLjY4NGwxOS4yMTUtOC43MzJ2MjEuNTQ1eiIvPiYjeGE7PC9zdmc+;" parent="1" vertex="1">
          <mxGeometry x="916.52" y="425" width="38" height="40" as="geometry" />
        </mxCell>
        <mxCell id="-3jr-mdi6pYV8UNn25hZ-49" value="SQL Server" style="image;sketch=0;aspect=fixed;html=1;points=[];align=left;fontSize=12;image=img/lib/mscae/SQL_Servers.svg;horizontal=1;labelPosition=right;verticalLabelPosition=middle;verticalAlign=middle;" parent="1" vertex="1">
          <mxGeometry x="280" y="120" width="25" height="25" as="geometry" />
        </mxCell>
      </root>
    </mxGraphModel>
  </diagram>
  <diagram id="_d1izfF2pMBwOjMrZHG5" name="Page-2">
    <mxGraphModel dx="2037" dy="1270" grid="1" gridSize="10" guides="1" tooltips="1" connect="1" arrows="1" fold="1" page="1" pageScale="1" pageWidth="1100" pageHeight="850" math="0" shadow="0">
      <root>
        <mxCell id="0" />
        <mxCell id="1" parent="0" />
        <mxCell id="PTU5RafsD3oIWj3EKOaJ-1" value="Data Flow Diagram" style="text;html=1;align=left;verticalAlign=middle;whiteSpace=wrap;rounded=0;fontSize=22;" vertex="1" parent="1">
          <mxGeometry x="185" y="170" width="325" height="40" as="geometry" />
        </mxCell>
        <mxCell id="PTU5RafsD3oIWj3EKOaJ-2" value="" style="rounded=0;whiteSpace=wrap;html=1;fillColor=none;strokeWidth=3;dashed=1;movable=1;resizable=1;rotatable=1;deletable=1;editable=1;locked=0;connectable=1;" vertex="1" parent="1">
          <mxGeometry x="185" y="250" width="150" height="380" as="geometry" />
        </mxCell>
        <mxCell id="PTU5RafsD3oIWj3EKOaJ-3" value="Sources" style="rounded=0;whiteSpace=wrap;html=1;strokeColor=none;fontSize=16;" vertex="1" parent="1">
          <mxGeometry x="210" y="220" width="120" height="60" as="geometry" />
        </mxCell>
        <mxCell id="PTU5RafsD3oIWj3EKOaJ-4" value="" style="group" vertex="1" connectable="0" parent="1">
          <mxGeometry x="235.5" y="510" width="60.49" height="50" as="geometry" />
        </mxCell>
        <mxCell id="PTU5RafsD3oIWj3EKOaJ-5" value="ERP" style="image;aspect=fixed;html=1;points=[];align=center;fontSize=12;image=img/lib/azure2/general/Folder_Blank.svg;" vertex="1" parent="PTU5RafsD3oIWj3EKOaJ-4">
          <mxGeometry width="53.41009735256307" height="43.347325387587425" as="geometry" />
        </mxCell>
        <mxCell id="PTU5RafsD3oIWj3EKOaJ-6" value="" style="image;aspect=fixed;html=1;points=[];align=center;fontSize=12;image=img/lib/azure2/general/Files.svg;" vertex="1" parent="PTU5RafsD3oIWj3EKOaJ-4">
          <mxGeometry x="38.31910673150755" y="25.747019662486434" width="22.169060698223284" height="24.251280435591323" as="geometry" />
        </mxCell>
        <mxCell id="PTU5RafsD3oIWj3EKOaJ-7" value="" style="group" vertex="1" connectable="0" parent="1">
          <mxGeometry x="235" y="350" width="66.72" height="50" as="geometry" />
        </mxCell>
        <mxCell id="PTU5RafsD3oIWj3EKOaJ-8" value="CRM" style="image;aspect=fixed;html=1;points=[];align=center;fontSize=12;image=img/lib/azure2/general/Folder_Blank.svg;" vertex="1" parent="PTU5RafsD3oIWj3EKOaJ-7">
          <mxGeometry width="53.41024937192147" height="43.34744876561743" as="geometry" />
        </mxCell>
        <mxCell id="PTU5RafsD3oIWj3EKOaJ-9" value="" style="image;aspect=fixed;html=1;points=[];align=center;fontSize=12;image=img/lib/azure2/general/Files.svg;" vertex="1" parent="PTU5RafsD3oIWj3EKOaJ-7">
          <mxGeometry x="42.26567699001792" y="25.747019662486434" width="22.16912379727291" height="24.25134946119275" as="geometry" />
        </mxCell>
        <mxCell id="PTU5RafsD3oIWj3EKOaJ-10" value="" style="rounded=1;whiteSpace=wrap;html=1;fillColor=none;arcSize=7;strokeColor=light-dark(#000000,#F0F0F0);strokeWidth=1;" vertex="1" parent="1">
          <mxGeometry x="415" y="290" width="130" height="340" as="geometry" />
        </mxCell>
        <mxCell id="PTU5RafsD3oIWj3EKOaJ-11" value="Bronze Layer" style="rounded=1;whiteSpace=wrap;html=1;fillColor=#f0a30a;arcSize=16;strokeColor=#BD7000;fontColor=#000000;" vertex="1" parent="1">
          <mxGeometry x="415" y="246" width="130" height="34" as="geometry" />
        </mxCell>
        <mxCell id="PTU5RafsD3oIWj3EKOaJ-12" style="edgeStyle=orthogonalEdgeStyle;rounded=0;orthogonalLoop=1;jettySize=auto;html=1;entryX=0;entryY=0.5;entryDx=0;entryDy=0;" edge="1" parent="1" source="PTU5RafsD3oIWj3EKOaJ-13" target="PTU5RafsD3oIWj3EKOaJ-62">
          <mxGeometry relative="1" as="geometry" />
        </mxCell>
        <mxCell id="PTU5RafsD3oIWj3EKOaJ-13" value="crm_sales_details" style="rounded=1;whiteSpace=wrap;html=1;fillColor=#f0a30a;arcSize=16;strokeColor=#BD7000;fontColor=#000000;" vertex="1" parent="1">
          <mxGeometry x="415" y="310" width="130" height="34" as="geometry" />
        </mxCell>
        <mxCell id="PTU5RafsD3oIWj3EKOaJ-14" style="edgeStyle=orthogonalEdgeStyle;rounded=0;orthogonalLoop=1;jettySize=auto;html=1;entryX=0;entryY=0.5;entryDx=0;entryDy=0;" edge="1" parent="1" source="PTU5RafsD3oIWj3EKOaJ-15" target="PTU5RafsD3oIWj3EKOaJ-63">
          <mxGeometry relative="1" as="geometry" />
        </mxCell>
        <mxCell id="PTU5RafsD3oIWj3EKOaJ-15" value="crm_cust_info" style="rounded=1;whiteSpace=wrap;html=1;fillColor=#f0a30a;arcSize=16;strokeColor=#BD7000;fontColor=#000000;" vertex="1" parent="1">
          <mxGeometry x="415" y="360" width="130" height="34" as="geometry" />
        </mxCell>
        <mxCell id="PTU5RafsD3oIWj3EKOaJ-16" style="edgeStyle=orthogonalEdgeStyle;rounded=0;orthogonalLoop=1;jettySize=auto;html=1;entryX=0;entryY=0.5;entryDx=0;entryDy=0;" edge="1" parent="1" source="PTU5RafsD3oIWj3EKOaJ-17" target="PTU5RafsD3oIWj3EKOaJ-64">
          <mxGeometry relative="1" as="geometry" />
        </mxCell>
        <mxCell id="PTU5RafsD3oIWj3EKOaJ-17" value="crm_prd_info" style="rounded=1;whiteSpace=wrap;html=1;fillColor=#f0a30a;arcSize=16;strokeColor=#BD7000;fontColor=#000000;" vertex="1" parent="1">
          <mxGeometry x="415" y="410" width="130" height="34" as="geometry" />
        </mxCell>
        <mxCell id="PTU5RafsD3oIWj3EKOaJ-18" style="edgeStyle=orthogonalEdgeStyle;rounded=0;orthogonalLoop=1;jettySize=auto;html=1;entryX=0;entryY=0.5;entryDx=0;entryDy=0;" edge="1" parent="1" source="PTU5RafsD3oIWj3EKOaJ-19" target="PTU5RafsD3oIWj3EKOaJ-65">
          <mxGeometry relative="1" as="geometry" />
        </mxCell>
        <mxCell id="PTU5RafsD3oIWj3EKOaJ-19" value="crm_prd_info" style="rounded=1;whiteSpace=wrap;html=1;fillColor=#f0a30a;arcSize=16;strokeColor=#BD7000;fontColor=#000000;" vertex="1" parent="1">
          <mxGeometry x="415" y="570" width="130" height="34" as="geometry" />
        </mxCell>
        <mxCell id="PTU5RafsD3oIWj3EKOaJ-20" style="edgeStyle=orthogonalEdgeStyle;rounded=0;orthogonalLoop=1;jettySize=auto;html=1;entryX=0;entryY=0.5;entryDx=0;entryDy=0;" edge="1" parent="1" source="PTU5RafsD3oIWj3EKOaJ-21" target="PTU5RafsD3oIWj3EKOaJ-66">
          <mxGeometry relative="1" as="geometry" />
        </mxCell>
        <mxCell id="PTU5RafsD3oIWj3EKOaJ-21" value="crm_cust_info" style="rounded=1;whiteSpace=wrap;html=1;fillColor=#f0a30a;arcSize=16;strokeColor=#BD7000;fontColor=#000000;" vertex="1" parent="1">
          <mxGeometry x="415" y="520" width="130" height="34" as="geometry" />
        </mxCell>
        <mxCell id="PTU5RafsD3oIWj3EKOaJ-22" style="edgeStyle=orthogonalEdgeStyle;rounded=0;orthogonalLoop=1;jettySize=auto;html=1;entryX=0;entryY=0.5;entryDx=0;entryDy=0;" edge="1" parent="1" source="PTU5RafsD3oIWj3EKOaJ-23" target="PTU5RafsD3oIWj3EKOaJ-67">
          <mxGeometry relative="1" as="geometry" />
        </mxCell>
        <mxCell id="PTU5RafsD3oIWj3EKOaJ-23" value="crm_sales_details" style="rounded=1;whiteSpace=wrap;html=1;fillColor=#f0a30a;arcSize=16;strokeColor=#BD7000;fontColor=#000000;" vertex="1" parent="1">
          <mxGeometry x="415" y="470" width="130" height="34" as="geometry" />
        </mxCell>
        <mxCell id="PTU5RafsD3oIWj3EKOaJ-24" style="edgeStyle=orthogonalEdgeStyle;rounded=0;orthogonalLoop=1;jettySize=auto;html=1;entryX=0;entryY=0.5;entryDx=0;entryDy=0;" edge="1" parent="1" source="PTU5RafsD3oIWj3EKOaJ-8" target="PTU5RafsD3oIWj3EKOaJ-13">
          <mxGeometry relative="1" as="geometry" />
        </mxCell>
        <mxCell id="PTU5RafsD3oIWj3EKOaJ-25" style="edgeStyle=orthogonalEdgeStyle;rounded=0;orthogonalLoop=1;jettySize=auto;html=1;entryX=0;entryY=0.5;entryDx=0;entryDy=0;" edge="1" parent="1" source="PTU5RafsD3oIWj3EKOaJ-8" target="PTU5RafsD3oIWj3EKOaJ-15">
          <mxGeometry relative="1" as="geometry" />
        </mxCell>
        <mxCell id="PTU5RafsD3oIWj3EKOaJ-26" style="edgeStyle=orthogonalEdgeStyle;rounded=0;orthogonalLoop=1;jettySize=auto;html=1;entryX=0;entryY=0.5;entryDx=0;entryDy=0;" edge="1" parent="1" source="PTU5RafsD3oIWj3EKOaJ-8" target="PTU5RafsD3oIWj3EKOaJ-17">
          <mxGeometry relative="1" as="geometry" />
        </mxCell>
        <mxCell id="PTU5RafsD3oIWj3EKOaJ-27" style="edgeStyle=orthogonalEdgeStyle;rounded=0;orthogonalLoop=1;jettySize=auto;html=1;entryX=0;entryY=0.5;entryDx=0;entryDy=0;" edge="1" parent="1" source="PTU5RafsD3oIWj3EKOaJ-5" target="PTU5RafsD3oIWj3EKOaJ-23">
          <mxGeometry relative="1" as="geometry" />
        </mxCell>
        <mxCell id="PTU5RafsD3oIWj3EKOaJ-28" style="edgeStyle=orthogonalEdgeStyle;rounded=0;orthogonalLoop=1;jettySize=auto;html=1;entryX=0;entryY=0.5;entryDx=0;entryDy=0;" edge="1" parent="1" source="PTU5RafsD3oIWj3EKOaJ-5" target="PTU5RafsD3oIWj3EKOaJ-21">
          <mxGeometry relative="1" as="geometry" />
        </mxCell>
        <mxCell id="PTU5RafsD3oIWj3EKOaJ-29" style="edgeStyle=orthogonalEdgeStyle;rounded=0;orthogonalLoop=1;jettySize=auto;html=1;entryX=0;entryY=0.5;entryDx=0;entryDy=0;" edge="1" parent="1" source="PTU5RafsD3oIWj3EKOaJ-5" target="PTU5RafsD3oIWj3EKOaJ-19">
          <mxGeometry relative="1" as="geometry" />
        </mxCell>
        <mxCell id="PTU5RafsD3oIWj3EKOaJ-60" value="" style="rounded=1;whiteSpace=wrap;html=1;fillColor=none;arcSize=7;strokeColor=light-dark(#000000,#F0F0F0);strokeWidth=1;" vertex="1" parent="1">
          <mxGeometry x="595" y="290" width="130" height="340" as="geometry" />
        </mxCell>
        <mxCell id="PTU5RafsD3oIWj3EKOaJ-61" value="Silver Layer" style="rounded=1;whiteSpace=wrap;html=1;fillColor=#f5f5f5;arcSize=16;strokeColor=#666666;fontColor=#333333;" vertex="1" parent="1">
          <mxGeometry x="595" y="246" width="130" height="34" as="geometry" />
        </mxCell>
        <mxCell id="PTU5RafsD3oIWj3EKOaJ-62" value="crm_sales_details" style="rounded=1;whiteSpace=wrap;html=1;fillColor=#f5f5f5;arcSize=16;strokeColor=#666666;fontColor=#333333;" vertex="1" parent="1">
          <mxGeometry x="595" y="310" width="130" height="34" as="geometry" />
        </mxCell>
        <mxCell id="PTU5RafsD3oIWj3EKOaJ-63" value="crm_cust_info" style="rounded=1;whiteSpace=wrap;html=1;fillColor=#f5f5f5;arcSize=16;strokeColor=#666666;fontColor=#333333;" vertex="1" parent="1">
          <mxGeometry x="595" y="360" width="130" height="34" as="geometry" />
        </mxCell>
        <mxCell id="PTU5RafsD3oIWj3EKOaJ-64" value="crm_prd_info" style="rounded=1;whiteSpace=wrap;html=1;fillColor=#f5f5f5;arcSize=16;strokeColor=#666666;fontColor=#333333;" vertex="1" parent="1">
          <mxGeometry x="595" y="410" width="130" height="34" as="geometry" />
        </mxCell>
        <mxCell id="PTU5RafsD3oIWj3EKOaJ-65" value="crm_prd_info" style="rounded=1;whiteSpace=wrap;html=1;fillColor=#f5f5f5;arcSize=16;strokeColor=#666666;fontColor=#333333;" vertex="1" parent="1">
          <mxGeometry x="595" y="570" width="130" height="34" as="geometry" />
        </mxCell>
        <mxCell id="PTU5RafsD3oIWj3EKOaJ-66" value="crm_cust_info" style="rounded=1;whiteSpace=wrap;html=1;fillColor=#f5f5f5;arcSize=16;strokeColor=#666666;fontColor=#333333;" vertex="1" parent="1">
          <mxGeometry x="595" y="520" width="130" height="34" as="geometry" />
        </mxCell>
        <mxCell id="PTU5RafsD3oIWj3EKOaJ-67" value="crm_sales_details" style="rounded=1;whiteSpace=wrap;html=1;fillColor=#f5f5f5;arcSize=16;strokeColor=#666666;fontColor=#333333;" vertex="1" parent="1">
          <mxGeometry x="595" y="470" width="130" height="34" as="geometry" />
        </mxCell>
        <mxCell id="PTU5RafsD3oIWj3EKOaJ-166" value="" style="rounded=1;whiteSpace=wrap;html=1;fillColor=none;arcSize=7;strokeColor=light-dark(#000000,#F0F0F0);strokeWidth=1;" vertex="1" parent="1">
          <mxGeometry x="785" y="290" width="130" height="340" as="geometry" />
        </mxCell>
        <mxCell id="PTU5RafsD3oIWj3EKOaJ-167" value="Gold Layer" style="rounded=1;whiteSpace=wrap;html=1;fillColor=#e3c800;arcSize=16;strokeColor=#B09500;fontColor=#000000;" vertex="1" parent="1">
          <mxGeometry x="785" y="246" width="130" height="34" as="geometry" />
        </mxCell>
        <mxCell id="PTU5RafsD3oIWj3EKOaJ-168" value="fact_sales" style="rounded=1;whiteSpace=wrap;html=1;fillColor=#e3c800;arcSize=16;strokeColor=#B09500;fontColor=#000000;" vertex="1" parent="1">
          <mxGeometry x="785" y="380" width="130" height="34" as="geometry" />
        </mxCell>
        <mxCell id="PTU5RafsD3oIWj3EKOaJ-169" value="dim_customers" style="rounded=1;whiteSpace=wrap;html=1;fillColor=#e3c800;arcSize=16;strokeColor=#B09500;fontColor=#000000;" vertex="1" parent="1">
          <mxGeometry x="785" y="430" width="130" height="34" as="geometry" />
        </mxCell>
        <mxCell id="PTU5RafsD3oIWj3EKOaJ-170" value="dim_products" style="rounded=1;whiteSpace=wrap;html=1;fillColor=#e3c800;arcSize=16;strokeColor=#B09500;fontColor=#000000;" vertex="1" parent="1">
          <mxGeometry x="785" y="480" width="130" height="34" as="geometry" />
        </mxCell>
        <mxCell id="PTU5RafsD3oIWj3EKOaJ-171" style="edgeStyle=orthogonalEdgeStyle;rounded=0;orthogonalLoop=1;jettySize=auto;html=1;entryX=0;entryY=0.5;entryDx=0;entryDy=0;exitX=1;exitY=0.5;exitDx=0;exitDy=0;" edge="1" parent="1" source="PTU5RafsD3oIWj3EKOaJ-62" target="PTU5RafsD3oIWj3EKOaJ-168">
          <mxGeometry relative="1" as="geometry">
            <mxPoint x="865" y="340" as="sourcePoint" />
            <mxPoint x="915" y="340" as="targetPoint" />
          </mxGeometry>
        </mxCell>
        <mxCell id="PTU5RafsD3oIWj3EKOaJ-172" style="edgeStyle=orthogonalEdgeStyle;rounded=0;orthogonalLoop=1;jettySize=auto;html=1;entryX=0;entryY=0.5;entryDx=0;entryDy=0;exitX=1;exitY=0.5;exitDx=0;exitDy=0;" edge="1" parent="1" source="PTU5RafsD3oIWj3EKOaJ-63" target="PTU5RafsD3oIWj3EKOaJ-168">
          <mxGeometry relative="1" as="geometry">
            <mxPoint x="955" y="362" as="sourcePoint" />
            <mxPoint x="1015" y="432" as="targetPoint" />
          </mxGeometry>
        </mxCell>
        <mxCell id="PTU5RafsD3oIWj3EKOaJ-173" style="edgeStyle=orthogonalEdgeStyle;rounded=0;orthogonalLoop=1;jettySize=auto;html=1;entryX=0;entryY=0.5;entryDx=0;entryDy=0;exitX=1;exitY=0.5;exitDx=0;exitDy=0;" edge="1" parent="1" source="PTU5RafsD3oIWj3EKOaJ-64" target="PTU5RafsD3oIWj3EKOaJ-170">
          <mxGeometry relative="1" as="geometry">
            <mxPoint x="735" y="380" as="sourcePoint" />
            <mxPoint x="795" y="400" as="targetPoint" />
            <Array as="points">
              <mxPoint x="765" y="427" />
              <mxPoint x="765" y="497" />
            </Array>
          </mxGeometry>
        </mxCell>
        <mxCell id="PTU5RafsD3oIWj3EKOaJ-174" style="edgeStyle=orthogonalEdgeStyle;rounded=0;orthogonalLoop=1;jettySize=auto;html=1;entryX=0;entryY=0.5;entryDx=0;entryDy=0;exitX=1;exitY=0.5;exitDx=0;exitDy=0;" edge="1" parent="1" source="PTU5RafsD3oIWj3EKOaJ-67" target="PTU5RafsD3oIWj3EKOaJ-169">
          <mxGeometry relative="1" as="geometry">
            <mxPoint x="745" y="470" as="sourcePoint" />
            <mxPoint x="805" y="540" as="targetPoint" />
          </mxGeometry>
        </mxCell>
        <mxCell id="PTU5RafsD3oIWj3EKOaJ-175" style="edgeStyle=orthogonalEdgeStyle;rounded=0;orthogonalLoop=1;jettySize=auto;html=1;entryX=0;entryY=0.5;entryDx=0;entryDy=0;exitX=1;exitY=0.5;exitDx=0;exitDy=0;" edge="1" parent="1" source="PTU5RafsD3oIWj3EKOaJ-66" target="PTU5RafsD3oIWj3EKOaJ-169">
          <mxGeometry relative="1" as="geometry">
            <mxPoint x="735" y="520" as="sourcePoint" />
            <mxPoint x="795" y="480" as="targetPoint" />
          </mxGeometry>
        </mxCell>
        <mxCell id="PTU5RafsD3oIWj3EKOaJ-176" style="edgeStyle=orthogonalEdgeStyle;rounded=0;orthogonalLoop=1;jettySize=auto;html=1;entryX=0;entryY=0.5;entryDx=0;entryDy=0;exitX=1;exitY=0.5;exitDx=0;exitDy=0;" edge="1" parent="1" source="PTU5RafsD3oIWj3EKOaJ-65" target="PTU5RafsD3oIWj3EKOaJ-170">
          <mxGeometry relative="1" as="geometry">
            <mxPoint x="755" y="650" as="sourcePoint" />
            <mxPoint x="815" y="560" as="targetPoint" />
            <Array as="points">
              <mxPoint x="765" y="587" />
              <mxPoint x="765" y="497" />
            </Array>
          </mxGeometry>
        </mxCell>
      </root>
    </mxGraphModel>
  </diagram>
  <diagram id="ahE-FrDPn_kLjBw6fCUj" name="Page-3">
    <mxGraphModel dx="2593" dy="1616" grid="1" gridSize="10" guides="1" tooltips="1" connect="1" arrows="1" fold="1" page="1" pageScale="1" pageWidth="1100" pageHeight="850" math="0" shadow="0">
      <root>
        <mxCell id="0" />
        <mxCell id="1" parent="0" />
        <mxCell id="kJwZEzNaDIHYdQD5rc5n-1" value="Integration Model" style="text;html=1;align=left;verticalAlign=middle;whiteSpace=wrap;rounded=0;fontSize=22;" vertex="1" parent="1">
          <mxGeometry x="85" y="80" width="325" height="40" as="geometry" />
        </mxCell>
        <mxCell id="kJwZEzNaDIHYdQD5rc5n-2" value="&lt;span style=&quot;text-wrap-mode: wrap;&quot;&gt;&lt;font style=&quot;color: rgb(0, 0, 0);&quot;&gt;crm_cust_info&lt;/font&gt;&lt;/span&gt;" style="swimlane;fontStyle=0;childLayout=stackLayout;horizontal=1;startSize=30;horizontalStack=0;resizeParent=1;resizeParentMax=0;resizeLast=0;collapsible=1;marginBottom=0;html=1;rounded=1;arcSize=17;fontSize=17;fillColor=#dae8fc;strokeColor=#6c8ebf;" vertex="1" parent="1">
          <mxGeometry x="405" y="430" width="161.36" height="70" as="geometry" />
        </mxCell>
        <mxCell id="kJwZEzNaDIHYdQD5rc5n-3" value="cst_id" style="text;strokeColor=none;fillColor=none;align=left;verticalAlign=top;spacingLeft=4;spacingRight=4;overflow=hidden;rotatable=0;points=[[0,0.5],[1,0.5]];portConstraint=eastwest;whiteSpace=wrap;html=1;fontSize=15;" vertex="1" parent="kJwZEzNaDIHYdQD5rc5n-2">
          <mxGeometry y="30" width="161.36" height="40" as="geometry" />
        </mxCell>
        <mxCell id="kJwZEzNaDIHYdQD5rc5n-4" value="Customer Information" style="text;html=1;align=center;verticalAlign=middle;whiteSpace=wrap;rounded=0;fontSize=14;" vertex="1" parent="1">
          <mxGeometry x="400.68000000000006" y="400" width="170" height="30" as="geometry" />
        </mxCell>
        <mxCell id="kJwZEzNaDIHYdQD5rc5n-5" value="&lt;span style=&quot;text-wrap-mode: wrap;&quot;&gt;&lt;font style=&quot;color: rgb(0, 0, 0);&quot;&gt;crm_prd_info&lt;/font&gt;&lt;/span&gt;" style="swimlane;fontStyle=0;childLayout=stackLayout;horizontal=1;startSize=30;horizontalStack=0;resizeParent=1;resizeParentMax=0;resizeLast=0;collapsible=1;marginBottom=0;html=1;rounded=1;arcSize=17;fontSize=17;fillColor=#dae8fc;strokeColor=#6c8ebf;" vertex="1" parent="1">
          <mxGeometry x="405" y="215" width="161.36" height="70" as="geometry" />
        </mxCell>
        <mxCell id="kJwZEzNaDIHYdQD5rc5n-6" value="prd_id" style="text;strokeColor=none;fillColor=none;align=left;verticalAlign=top;spacingLeft=4;spacingRight=4;overflow=hidden;rotatable=0;points=[[0,0.5],[1,0.5]];portConstraint=eastwest;whiteSpace=wrap;html=1;fontSize=15;" vertex="1" parent="kJwZEzNaDIHYdQD5rc5n-5">
          <mxGeometry y="30" width="161.36" height="40" as="geometry" />
        </mxCell>
        <mxCell id="kJwZEzNaDIHYdQD5rc5n-7" value="Current &amp;amp; History Product Information" style="text;html=1;align=center;verticalAlign=middle;whiteSpace=wrap;rounded=0;fontSize=14;" vertex="1" parent="1">
          <mxGeometry x="356.36" y="180" width="258.64" height="30" as="geometry" />
        </mxCell>
        <mxCell id="kJwZEzNaDIHYdQD5rc5n-8" value="&lt;span style=&quot;text-wrap-mode: wrap;&quot;&gt;&lt;font style=&quot;color: rgb(0, 0, 0);&quot;&gt;crm_sales_details&lt;/font&gt;&lt;/span&gt;" style="swimlane;fontStyle=0;childLayout=stackLayout;horizontal=1;startSize=30;horizontalStack=0;resizeParent=1;resizeParentMax=0;resizeLast=0;collapsible=1;marginBottom=0;html=1;rounded=1;arcSize=17;fontSize=17;fillColor=#dae8fc;strokeColor=#6c8ebf;" vertex="1" parent="1">
          <mxGeometry x="119.31999999999994" y="285" width="161.36" height="110" as="geometry" />
        </mxCell>
        <mxCell id="kJwZEzNaDIHYdQD5rc5n-9" value="prd_key" style="text;strokeColor=none;fillColor=none;align=left;verticalAlign=top;spacingLeft=4;spacingRight=4;overflow=hidden;rotatable=0;points=[[0,0.5],[1,0.5]];portConstraint=eastwest;whiteSpace=wrap;html=1;fontSize=15;" vertex="1" parent="kJwZEzNaDIHYdQD5rc5n-8">
          <mxGeometry y="30" width="161.36" height="40" as="geometry" />
        </mxCell>
        <mxCell id="kJwZEzNaDIHYdQD5rc5n-10" value="cst_id" style="text;strokeColor=none;fillColor=none;align=left;verticalAlign=top;spacingLeft=4;spacingRight=4;overflow=hidden;rotatable=0;points=[[0,0.5],[1,0.5]];portConstraint=eastwest;whiteSpace=wrap;html=1;fontSize=15;" vertex="1" parent="kJwZEzNaDIHYdQD5rc5n-8">
          <mxGeometry y="70" width="161.36" height="40" as="geometry" />
        </mxCell>
        <mxCell id="kJwZEzNaDIHYdQD5rc5n-11" value="Transactional Records about Sales &amp;amp; Orders" style="text;html=1;align=center;verticalAlign=middle;whiteSpace=wrap;rounded=0;fontSize=14;" vertex="1" parent="1">
          <mxGeometry x="115" y="250" width="170" height="30" as="geometry" />
        </mxCell>
        <mxCell id="kJwZEzNaDIHYdQD5rc5n-12" style="edgeStyle=orthogonalEdgeStyle;rounded=0;orthogonalLoop=1;jettySize=auto;html=1;entryX=0;entryY=0.5;entryDx=0;entryDy=0;" edge="1" parent="1" source="kJwZEzNaDIHYdQD5rc5n-10" target="kJwZEzNaDIHYdQD5rc5n-3">
          <mxGeometry relative="1" as="geometry" />
        </mxCell>
        <mxCell id="kJwZEzNaDIHYdQD5rc5n-13" style="edgeStyle=orthogonalEdgeStyle;rounded=0;orthogonalLoop=1;jettySize=auto;html=1;entryX=0;entryY=0.5;entryDx=0;entryDy=0;" edge="1" parent="1" source="kJwZEzNaDIHYdQD5rc5n-9" target="kJwZEzNaDIHYdQD5rc5n-6">
          <mxGeometry relative="1" as="geometry" />
        </mxCell>
        <mxCell id="kJwZEzNaDIHYdQD5rc5n-14" style="edgeStyle=orthogonalEdgeStyle;rounded=0;orthogonalLoop=1;jettySize=auto;html=1;entryX=1;entryY=0.5;entryDx=0;entryDy=0;" edge="1" parent="1" source="kJwZEzNaDIHYdQD5rc5n-27" target="kJwZEzNaDIHYdQD5rc5n-6">
          <mxGeometry relative="1" as="geometry" />
        </mxCell>
        <mxCell id="kJwZEzNaDIHYdQD5rc5n-15" style="edgeStyle=orthogonalEdgeStyle;rounded=0;orthogonalLoop=1;jettySize=auto;html=1;entryX=1;entryY=0.5;entryDx=0;entryDy=0;" edge="1" parent="1" source="kJwZEzNaDIHYdQD5rc5n-22" target="kJwZEzNaDIHYdQD5rc5n-3">
          <mxGeometry relative="1" as="geometry" />
        </mxCell>
        <mxCell id="kJwZEzNaDIHYdQD5rc5n-16" style="edgeStyle=orthogonalEdgeStyle;rounded=0;orthogonalLoop=1;jettySize=auto;html=1;entryX=1;entryY=0.5;entryDx=0;entryDy=0;" edge="1" parent="1" source="kJwZEzNaDIHYdQD5rc5n-24" target="kJwZEzNaDIHYdQD5rc5n-3">
          <mxGeometry relative="1" as="geometry" />
        </mxCell>
        <mxCell id="kJwZEzNaDIHYdQD5rc5n-17" value="" style="rounded=1;whiteSpace=wrap;html=1;fillColor=none;dashed=1;arcSize=6;" vertex="1" parent="1">
          <mxGeometry x="655" y="160" width="360" height="410" as="geometry" />
        </mxCell>
        <mxCell id="kJwZEzNaDIHYdQD5rc5n-18" value="" style="rounded=1;whiteSpace=wrap;html=1;fillColor=none;dashed=1;arcSize=6;" vertex="1" parent="1">
          <mxGeometry x="85" y="160" width="530" height="410" as="geometry" />
        </mxCell>
        <mxCell id="kJwZEzNaDIHYdQD5rc5n-19" value="CRM" style="rounded=1;whiteSpace=wrap;html=1;fontStyle=1;fontSize=16;fillColor=#dae8fc;strokeColor=#6c8ebf;fontColor=#000000;" vertex="1" parent="1">
          <mxGeometry x="290" y="140" width="120" height="40" as="geometry" />
        </mxCell>
        <mxCell id="kJwZEzNaDIHYdQD5rc5n-20" value="Extra Customer Information (Birthdate)" style="text;html=1;align=center;verticalAlign=middle;whiteSpace=wrap;rounded=0;fontSize=14;" vertex="1" parent="1">
          <mxGeometry x="737.48" y="305" width="258.64" height="30" as="geometry" />
        </mxCell>
        <mxCell id="kJwZEzNaDIHYdQD5rc5n-21" value="&lt;span style=&quot;text-wrap-mode: wrap;&quot;&gt;&lt;font style=&quot;color: rgb(0, 0, 0);&quot;&gt;erp_cust_az12&lt;/font&gt;&lt;/span&gt;" style="swimlane;fontStyle=0;childLayout=stackLayout;horizontal=1;startSize=30;horizontalStack=0;resizeParent=1;resizeParentMax=0;resizeLast=0;collapsible=1;marginBottom=0;html=1;rounded=1;arcSize=17;fontSize=17;fillColor=#ffe6cc;strokeColor=#d79b00;" vertex="1" parent="1">
          <mxGeometry x="786.1199999999999" y="340" width="161.36" height="70" as="geometry" />
        </mxCell>
        <mxCell id="kJwZEzNaDIHYdQD5rc5n-22" value="cid" style="text;strokeColor=none;fillColor=none;align=left;verticalAlign=top;spacingLeft=4;spacingRight=4;overflow=hidden;rotatable=0;points=[[0,0.5],[1,0.5]];portConstraint=eastwest;whiteSpace=wrap;html=1;fontSize=15;" vertex="1" parent="kJwZEzNaDIHYdQD5rc5n-21">
          <mxGeometry y="30" width="161.36" height="40" as="geometry" />
        </mxCell>
        <mxCell id="kJwZEzNaDIHYdQD5rc5n-23" value="&lt;span style=&quot;text-wrap-mode: wrap;&quot;&gt;&lt;font style=&quot;color: rgb(0, 0, 0);&quot;&gt;erp_loc_a101&lt;/font&gt;&lt;/span&gt;" style="swimlane;fontStyle=0;childLayout=stackLayout;horizontal=1;startSize=30;horizontalStack=0;resizeParent=1;resizeParentMax=0;resizeLast=0;collapsible=1;marginBottom=0;html=1;rounded=1;arcSize=17;fontSize=17;fillColor=#ffe6cc;strokeColor=#d79b00;" vertex="1" parent="1">
          <mxGeometry x="786.1199999999999" y="465" width="161.36" height="70" as="geometry" />
        </mxCell>
        <mxCell id="kJwZEzNaDIHYdQD5rc5n-24" value="cid" style="text;strokeColor=none;fillColor=none;align=left;verticalAlign=top;spacingLeft=4;spacingRight=4;overflow=hidden;rotatable=0;points=[[0,0.5],[1,0.5]];portConstraint=eastwest;whiteSpace=wrap;html=1;fontSize=15;" vertex="1" parent="kJwZEzNaDIHYdQD5rc5n-23">
          <mxGeometry y="30" width="161.36" height="40" as="geometry" />
        </mxCell>
        <mxCell id="kJwZEzNaDIHYdQD5rc5n-25" value="Location of Customers (Country)" style="text;html=1;align=center;verticalAlign=middle;whiteSpace=wrap;rounded=0;fontSize=14;" vertex="1" parent="1">
          <mxGeometry x="737.48" y="430" width="258.64" height="30" as="geometry" />
        </mxCell>
        <mxCell id="kJwZEzNaDIHYdQD5rc5n-26" value="&lt;span style=&quot;text-wrap-mode: wrap;&quot;&gt;&lt;font style=&quot;color: rgb(0, 0, 0);&quot;&gt;erp_px_cat_g1v2&lt;/font&gt;&lt;/span&gt;" style="swimlane;fontStyle=0;childLayout=stackLayout;horizontal=1;startSize=30;horizontalStack=0;resizeParent=1;resizeParentMax=0;resizeLast=0;collapsible=1;marginBottom=0;html=1;rounded=1;arcSize=17;fontSize=17;fillColor=#ffe6cc;strokeColor=#d79b00;" vertex="1" parent="1">
          <mxGeometry x="786.1199999999999" y="215" width="161.36" height="70" as="geometry" />
        </mxCell>
        <mxCell id="kJwZEzNaDIHYdQD5rc5n-27" value="id" style="text;strokeColor=none;fillColor=none;align=left;verticalAlign=top;spacingLeft=4;spacingRight=4;overflow=hidden;rotatable=0;points=[[0,0.5],[1,0.5]];portConstraint=eastwest;whiteSpace=wrap;html=1;fontSize=15;" vertex="1" parent="kJwZEzNaDIHYdQD5rc5n-26">
          <mxGeometry y="30" width="161.36" height="40" as="geometry" />
        </mxCell>
        <mxCell id="kJwZEzNaDIHYdQD5rc5n-28" value="Product Categories" style="text;html=1;align=center;verticalAlign=middle;whiteSpace=wrap;rounded=0;fontSize=14;" vertex="1" parent="1">
          <mxGeometry x="737.48" y="180" width="258.64" height="30" as="geometry" />
        </mxCell>
        <mxCell id="kJwZEzNaDIHYdQD5rc5n-29" value="ERP" style="rounded=1;whiteSpace=wrap;html=1;fillColor=#fff2cc;strokeColor=#d6b656;fontColor=#000000;fontStyle=1;fontSize=16;" vertex="1" parent="1">
          <mxGeometry x="785" y="140" width="120" height="40" as="geometry" />
        </mxCell>
        <mxCell id="kJwZEzNaDIHYdQD5rc5n-30" style="edgeStyle=orthogonalEdgeStyle;rounded=0;orthogonalLoop=1;jettySize=auto;html=1;exitX=0.5;exitY=0;exitDx=0;exitDy=0;entryX=0.497;entryY=0.25;entryDx=0;entryDy=0;entryPerimeter=0;" edge="1" parent="1" source="kJwZEzNaDIHYdQD5rc5n-29" target="kJwZEzNaDIHYdQD5rc5n-29">
          <mxGeometry relative="1" as="geometry" />
        </mxCell>
      </root>
    </mxGraphModel>
  </diagram>
  <diagram id="_LpqBIixzjQKjsDKhRBc" name="Page-4">
    <mxGraphModel dx="2037" dy="1270" grid="1" gridSize="10" guides="1" tooltips="1" connect="1" arrows="1" fold="1" page="1" pageScale="1" pageWidth="1100" pageHeight="850" math="0" shadow="0">
      <root>
        <mxCell id="0" />
        <mxCell id="1" parent="0" />
        <mxCell id="tirVqSWpJ9YYcZPwYmM--1" value="Sales Data Mart (Star Schema)" style="text;html=1;align=left;verticalAlign=middle;whiteSpace=wrap;rounded=0;fontSize=22;" vertex="1" parent="1">
          <mxGeometry x="130" y="120" width="325" height="40" as="geometry" />
        </mxCell>
        <mxCell id="tirVqSWpJ9YYcZPwYmM--2" value="gold.dim_customers" style="shape=table;startSize=30;container=1;collapsible=1;childLayout=tableLayout;fixedRows=1;rowLines=0;fontStyle=1;align=center;resizeLast=1;html=1;rounded=1;" vertex="1" parent="1">
          <mxGeometry x="130" y="190" width="180" height="330" as="geometry" />
        </mxCell>
        <mxCell id="tirVqSWpJ9YYcZPwYmM--3" value="" style="shape=tableRow;horizontal=0;startSize=0;swimlaneHead=0;swimlaneBody=0;fillColor=none;collapsible=0;dropTarget=0;points=[[0,0.5],[1,0.5]];portConstraint=eastwest;top=0;left=0;right=0;bottom=1;" vertex="1" parent="tirVqSWpJ9YYcZPwYmM--2">
          <mxGeometry y="30" width="180" height="30" as="geometry" />
        </mxCell>
        <mxCell id="tirVqSWpJ9YYcZPwYmM--4" value="PK" style="shape=partialRectangle;connectable=0;fillColor=none;top=0;left=0;bottom=0;right=0;fontStyle=1;overflow=hidden;whiteSpace=wrap;html=1;" vertex="1" parent="tirVqSWpJ9YYcZPwYmM--3">
          <mxGeometry width="30" height="30" as="geometry">
            <mxRectangle width="30" height="30" as="alternateBounds" />
          </mxGeometry>
        </mxCell>
        <mxCell id="tirVqSWpJ9YYcZPwYmM--5" value="customer_key" style="shape=partialRectangle;connectable=0;fillColor=none;top=0;left=0;bottom=0;right=0;align=left;spacingLeft=6;fontStyle=5;overflow=hidden;whiteSpace=wrap;html=1;" vertex="1" parent="tirVqSWpJ9YYcZPwYmM--3">
          <mxGeometry x="30" width="150" height="30" as="geometry">
            <mxRectangle width="150" height="30" as="alternateBounds" />
          </mxGeometry>
        </mxCell>
        <mxCell id="tirVqSWpJ9YYcZPwYmM--6" value="" style="shape=tableRow;horizontal=0;startSize=0;swimlaneHead=0;swimlaneBody=0;fillColor=none;collapsible=0;dropTarget=0;points=[[0,0.5],[1,0.5]];portConstraint=eastwest;top=0;left=0;right=0;bottom=0;" vertex="1" parent="tirVqSWpJ9YYcZPwYmM--2">
          <mxGeometry y="60" width="180" height="30" as="geometry" />
        </mxCell>
        <mxCell id="tirVqSWpJ9YYcZPwYmM--7" value="" style="shape=partialRectangle;connectable=0;fillColor=none;top=0;left=0;bottom=0;right=0;editable=1;overflow=hidden;whiteSpace=wrap;html=1;" vertex="1" parent="tirVqSWpJ9YYcZPwYmM--6">
          <mxGeometry width="30" height="30" as="geometry">
            <mxRectangle width="30" height="30" as="alternateBounds" />
          </mxGeometry>
        </mxCell>
        <mxCell id="tirVqSWpJ9YYcZPwYmM--8" value="customer_id" style="shape=partialRectangle;connectable=0;fillColor=none;top=0;left=0;bottom=0;right=0;align=left;spacingLeft=6;overflow=hidden;whiteSpace=wrap;html=1;" vertex="1" parent="tirVqSWpJ9YYcZPwYmM--6">
          <mxGeometry x="30" width="150" height="30" as="geometry">
            <mxRectangle width="150" height="30" as="alternateBounds" />
          </mxGeometry>
        </mxCell>
        <mxCell id="tirVqSWpJ9YYcZPwYmM--9" value="" style="shape=tableRow;horizontal=0;startSize=0;swimlaneHead=0;swimlaneBody=0;fillColor=none;collapsible=0;dropTarget=0;points=[[0,0.5],[1,0.5]];portConstraint=eastwest;top=0;left=0;right=0;bottom=0;" vertex="1" parent="tirVqSWpJ9YYcZPwYmM--2">
          <mxGeometry y="90" width="180" height="30" as="geometry" />
        </mxCell>
        <mxCell id="tirVqSWpJ9YYcZPwYmM--10" value="" style="shape=partialRectangle;connectable=0;fillColor=none;top=0;left=0;bottom=0;right=0;editable=1;overflow=hidden;whiteSpace=wrap;html=1;" vertex="1" parent="tirVqSWpJ9YYcZPwYmM--9">
          <mxGeometry width="30" height="30" as="geometry">
            <mxRectangle width="30" height="30" as="alternateBounds" />
          </mxGeometry>
        </mxCell>
        <mxCell id="tirVqSWpJ9YYcZPwYmM--11" value="customer_number" style="shape=partialRectangle;connectable=0;fillColor=none;top=0;left=0;bottom=0;right=0;align=left;spacingLeft=6;overflow=hidden;whiteSpace=wrap;html=1;" vertex="1" parent="tirVqSWpJ9YYcZPwYmM--9">
          <mxGeometry x="30" width="150" height="30" as="geometry">
            <mxRectangle width="150" height="30" as="alternateBounds" />
          </mxGeometry>
        </mxCell>
        <mxCell id="tirVqSWpJ9YYcZPwYmM--12" value="" style="shape=tableRow;horizontal=0;startSize=0;swimlaneHead=0;swimlaneBody=0;fillColor=none;collapsible=0;dropTarget=0;points=[[0,0.5],[1,0.5]];portConstraint=eastwest;top=0;left=0;right=0;bottom=0;" vertex="1" parent="tirVqSWpJ9YYcZPwYmM--2">
          <mxGeometry y="120" width="180" height="30" as="geometry" />
        </mxCell>
        <mxCell id="tirVqSWpJ9YYcZPwYmM--13" value="" style="shape=partialRectangle;connectable=0;fillColor=none;top=0;left=0;bottom=0;right=0;editable=1;overflow=hidden;whiteSpace=wrap;html=1;" vertex="1" parent="tirVqSWpJ9YYcZPwYmM--12">
          <mxGeometry width="30" height="30" as="geometry">
            <mxRectangle width="30" height="30" as="alternateBounds" />
          </mxGeometry>
        </mxCell>
        <mxCell id="tirVqSWpJ9YYcZPwYmM--14" value="first_name" style="shape=partialRectangle;connectable=0;fillColor=none;top=0;left=0;bottom=0;right=0;align=left;spacingLeft=6;overflow=hidden;whiteSpace=wrap;html=1;" vertex="1" parent="tirVqSWpJ9YYcZPwYmM--12">
          <mxGeometry x="30" width="150" height="30" as="geometry">
            <mxRectangle width="150" height="30" as="alternateBounds" />
          </mxGeometry>
        </mxCell>
        <mxCell id="tirVqSWpJ9YYcZPwYmM--15" style="shape=tableRow;horizontal=0;startSize=0;swimlaneHead=0;swimlaneBody=0;fillColor=none;collapsible=0;dropTarget=0;points=[[0,0.5],[1,0.5]];portConstraint=eastwest;top=0;left=0;right=0;bottom=0;" vertex="1" parent="tirVqSWpJ9YYcZPwYmM--2">
          <mxGeometry y="150" width="180" height="30" as="geometry" />
        </mxCell>
        <mxCell id="tirVqSWpJ9YYcZPwYmM--16" style="shape=partialRectangle;connectable=0;fillColor=none;top=0;left=0;bottom=0;right=0;editable=1;overflow=hidden;whiteSpace=wrap;html=1;" vertex="1" parent="tirVqSWpJ9YYcZPwYmM--15">
          <mxGeometry width="30" height="30" as="geometry">
            <mxRectangle width="30" height="30" as="alternateBounds" />
          </mxGeometry>
        </mxCell>
        <mxCell id="tirVqSWpJ9YYcZPwYmM--17" value="last_name" style="shape=partialRectangle;connectable=0;fillColor=none;top=0;left=0;bottom=0;right=0;align=left;spacingLeft=6;overflow=hidden;whiteSpace=wrap;html=1;" vertex="1" parent="tirVqSWpJ9YYcZPwYmM--15">
          <mxGeometry x="30" width="150" height="30" as="geometry">
            <mxRectangle width="150" height="30" as="alternateBounds" />
          </mxGeometry>
        </mxCell>
        <mxCell id="tirVqSWpJ9YYcZPwYmM--18" style="shape=tableRow;horizontal=0;startSize=0;swimlaneHead=0;swimlaneBody=0;fillColor=none;collapsible=0;dropTarget=0;points=[[0,0.5],[1,0.5]];portConstraint=eastwest;top=0;left=0;right=0;bottom=0;" vertex="1" parent="tirVqSWpJ9YYcZPwYmM--2">
          <mxGeometry y="180" width="180" height="30" as="geometry" />
        </mxCell>
        <mxCell id="tirVqSWpJ9YYcZPwYmM--19" style="shape=partialRectangle;connectable=0;fillColor=none;top=0;left=0;bottom=0;right=0;editable=1;overflow=hidden;whiteSpace=wrap;html=1;" vertex="1" parent="tirVqSWpJ9YYcZPwYmM--18">
          <mxGeometry width="30" height="30" as="geometry">
            <mxRectangle width="30" height="30" as="alternateBounds" />
          </mxGeometry>
        </mxCell>
        <mxCell id="tirVqSWpJ9YYcZPwYmM--20" value="country" style="shape=partialRectangle;connectable=0;fillColor=none;top=0;left=0;bottom=0;right=0;align=left;spacingLeft=6;overflow=hidden;whiteSpace=wrap;html=1;" vertex="1" parent="tirVqSWpJ9YYcZPwYmM--18">
          <mxGeometry x="30" width="150" height="30" as="geometry">
            <mxRectangle width="150" height="30" as="alternateBounds" />
          </mxGeometry>
        </mxCell>
        <mxCell id="tirVqSWpJ9YYcZPwYmM--21" style="shape=tableRow;horizontal=0;startSize=0;swimlaneHead=0;swimlaneBody=0;fillColor=none;collapsible=0;dropTarget=0;points=[[0,0.5],[1,0.5]];portConstraint=eastwest;top=0;left=0;right=0;bottom=0;" vertex="1" parent="tirVqSWpJ9YYcZPwYmM--2">
          <mxGeometry y="210" width="180" height="30" as="geometry" />
        </mxCell>
        <mxCell id="tirVqSWpJ9YYcZPwYmM--22" style="shape=partialRectangle;connectable=0;fillColor=none;top=0;left=0;bottom=0;right=0;editable=1;overflow=hidden;whiteSpace=wrap;html=1;" vertex="1" parent="tirVqSWpJ9YYcZPwYmM--21">
          <mxGeometry width="30" height="30" as="geometry">
            <mxRectangle width="30" height="30" as="alternateBounds" />
          </mxGeometry>
        </mxCell>
        <mxCell id="tirVqSWpJ9YYcZPwYmM--23" value="marital_status" style="shape=partialRectangle;connectable=0;fillColor=none;top=0;left=0;bottom=0;right=0;align=left;spacingLeft=6;overflow=hidden;whiteSpace=wrap;html=1;" vertex="1" parent="tirVqSWpJ9YYcZPwYmM--21">
          <mxGeometry x="30" width="150" height="30" as="geometry">
            <mxRectangle width="150" height="30" as="alternateBounds" />
          </mxGeometry>
        </mxCell>
        <mxCell id="tirVqSWpJ9YYcZPwYmM--24" style="shape=tableRow;horizontal=0;startSize=0;swimlaneHead=0;swimlaneBody=0;fillColor=none;collapsible=0;dropTarget=0;points=[[0,0.5],[1,0.5]];portConstraint=eastwest;top=0;left=0;right=0;bottom=0;" vertex="1" parent="tirVqSWpJ9YYcZPwYmM--2">
          <mxGeometry y="240" width="180" height="30" as="geometry" />
        </mxCell>
        <mxCell id="tirVqSWpJ9YYcZPwYmM--25" style="shape=partialRectangle;connectable=0;fillColor=none;top=0;left=0;bottom=0;right=0;editable=1;overflow=hidden;whiteSpace=wrap;html=1;" vertex="1" parent="tirVqSWpJ9YYcZPwYmM--24">
          <mxGeometry width="30" height="30" as="geometry">
            <mxRectangle width="30" height="30" as="alternateBounds" />
          </mxGeometry>
        </mxCell>
        <mxCell id="tirVqSWpJ9YYcZPwYmM--26" value="gender" style="shape=partialRectangle;connectable=0;fillColor=none;top=0;left=0;bottom=0;right=0;align=left;spacingLeft=6;overflow=hidden;whiteSpace=wrap;html=1;" vertex="1" parent="tirVqSWpJ9YYcZPwYmM--24">
          <mxGeometry x="30" width="150" height="30" as="geometry">
            <mxRectangle width="150" height="30" as="alternateBounds" />
          </mxGeometry>
        </mxCell>
        <mxCell id="tirVqSWpJ9YYcZPwYmM--27" style="shape=tableRow;horizontal=0;startSize=0;swimlaneHead=0;swimlaneBody=0;fillColor=none;collapsible=0;dropTarget=0;points=[[0,0.5],[1,0.5]];portConstraint=eastwest;top=0;left=0;right=0;bottom=0;" vertex="1" parent="tirVqSWpJ9YYcZPwYmM--2">
          <mxGeometry y="270" width="180" height="30" as="geometry" />
        </mxCell>
        <mxCell id="tirVqSWpJ9YYcZPwYmM--28" style="shape=partialRectangle;connectable=0;fillColor=none;top=0;left=0;bottom=0;right=0;editable=1;overflow=hidden;whiteSpace=wrap;html=1;" vertex="1" parent="tirVqSWpJ9YYcZPwYmM--27">
          <mxGeometry width="30" height="30" as="geometry">
            <mxRectangle width="30" height="30" as="alternateBounds" />
          </mxGeometry>
        </mxCell>
        <mxCell id="tirVqSWpJ9YYcZPwYmM--29" value="birthdate" style="shape=partialRectangle;connectable=0;fillColor=none;top=0;left=0;bottom=0;right=0;align=left;spacingLeft=6;overflow=hidden;whiteSpace=wrap;html=1;" vertex="1" parent="tirVqSWpJ9YYcZPwYmM--27">
          <mxGeometry x="30" width="150" height="30" as="geometry">
            <mxRectangle width="150" height="30" as="alternateBounds" />
          </mxGeometry>
        </mxCell>
        <mxCell id="tirVqSWpJ9YYcZPwYmM--30" style="shape=tableRow;horizontal=0;startSize=0;swimlaneHead=0;swimlaneBody=0;fillColor=none;collapsible=0;dropTarget=0;points=[[0,0.5],[1,0.5]];portConstraint=eastwest;top=0;left=0;right=0;bottom=0;" vertex="1" parent="tirVqSWpJ9YYcZPwYmM--2">
          <mxGeometry y="300" width="180" height="30" as="geometry" />
        </mxCell>
        <mxCell id="tirVqSWpJ9YYcZPwYmM--31" style="shape=partialRectangle;connectable=0;fillColor=none;top=0;left=0;bottom=0;right=0;editable=1;overflow=hidden;whiteSpace=wrap;html=1;" vertex="1" parent="tirVqSWpJ9YYcZPwYmM--30">
          <mxGeometry width="30" height="30" as="geometry">
            <mxRectangle width="30" height="30" as="alternateBounds" />
          </mxGeometry>
        </mxCell>
        <mxCell id="tirVqSWpJ9YYcZPwYmM--32" value="country" style="shape=partialRectangle;connectable=0;fillColor=none;top=0;left=0;bottom=0;right=0;align=left;spacingLeft=6;overflow=hidden;whiteSpace=wrap;html=1;" vertex="1" parent="tirVqSWpJ9YYcZPwYmM--30">
          <mxGeometry x="30" width="150" height="30" as="geometry">
            <mxRectangle width="150" height="30" as="alternateBounds" />
          </mxGeometry>
        </mxCell>
        <mxCell id="tirVqSWpJ9YYcZPwYmM--33" value="gold.fact_sales" style="shape=table;startSize=30;container=1;collapsible=1;childLayout=tableLayout;fixedRows=1;rowLines=0;fontStyle=1;align=center;resizeLast=1;html=1;rounded=1;" vertex="1" parent="1">
          <mxGeometry x="390" y="190" width="190" height="300" as="geometry" />
        </mxCell>
        <mxCell id="tirVqSWpJ9YYcZPwYmM--34" value="" style="shape=tableRow;horizontal=0;startSize=0;swimlaneHead=0;swimlaneBody=0;fillColor=none;collapsible=0;dropTarget=0;points=[[0,0.5],[1,0.5]];portConstraint=eastwest;top=0;left=0;right=0;bottom=0;" vertex="1" parent="tirVqSWpJ9YYcZPwYmM--33">
          <mxGeometry y="30" width="190" height="30" as="geometry" />
        </mxCell>
        <mxCell id="tirVqSWpJ9YYcZPwYmM--35" value="" style="shape=partialRectangle;connectable=0;fillColor=none;top=0;left=0;bottom=0;right=0;editable=1;overflow=hidden;whiteSpace=wrap;html=1;" vertex="1" parent="tirVqSWpJ9YYcZPwYmM--34">
          <mxGeometry width="30" height="30" as="geometry">
            <mxRectangle width="30" height="30" as="alternateBounds" />
          </mxGeometry>
        </mxCell>
        <mxCell id="tirVqSWpJ9YYcZPwYmM--36" value="order_number" style="shape=partialRectangle;connectable=0;fillColor=none;top=0;left=0;bottom=0;right=0;align=left;spacingLeft=6;overflow=hidden;whiteSpace=wrap;html=1;" vertex="1" parent="tirVqSWpJ9YYcZPwYmM--34">
          <mxGeometry x="30" width="160" height="30" as="geometry">
            <mxRectangle width="160" height="30" as="alternateBounds" />
          </mxGeometry>
        </mxCell>
        <mxCell id="tirVqSWpJ9YYcZPwYmM--37" value="" style="shape=tableRow;horizontal=0;startSize=0;swimlaneHead=0;swimlaneBody=0;fillColor=none;collapsible=0;dropTarget=0;points=[[0,0.5],[1,0.5]];portConstraint=eastwest;top=0;left=0;right=0;bottom=0;" vertex="1" parent="tirVqSWpJ9YYcZPwYmM--33">
          <mxGeometry y="60" width="190" height="30" as="geometry" />
        </mxCell>
        <mxCell id="tirVqSWpJ9YYcZPwYmM--38" value="FK&lt;span style=&quot;background-color: transparent; color: light-dark(rgb(0, 0, 0), rgb(255, 255, 255));&quot;&gt;1&lt;/span&gt;" style="shape=partialRectangle;connectable=0;fillColor=none;top=0;left=0;bottom=0;right=0;editable=1;overflow=hidden;whiteSpace=wrap;html=1;" vertex="1" parent="tirVqSWpJ9YYcZPwYmM--37">
          <mxGeometry width="30" height="30" as="geometry">
            <mxRectangle width="30" height="30" as="alternateBounds" />
          </mxGeometry>
        </mxCell>
        <mxCell id="tirVqSWpJ9YYcZPwYmM--39" value="product_key" style="shape=partialRectangle;connectable=0;fillColor=none;top=0;left=0;bottom=0;right=0;align=left;spacingLeft=6;overflow=hidden;whiteSpace=wrap;html=1;" vertex="1" parent="tirVqSWpJ9YYcZPwYmM--37">
          <mxGeometry x="30" width="160" height="30" as="geometry">
            <mxRectangle width="160" height="30" as="alternateBounds" />
          </mxGeometry>
        </mxCell>
        <mxCell id="tirVqSWpJ9YYcZPwYmM--40" value="" style="shape=tableRow;horizontal=0;startSize=0;swimlaneHead=0;swimlaneBody=0;fillColor=none;collapsible=0;dropTarget=0;points=[[0,0.5],[1,0.5]];portConstraint=eastwest;top=0;left=0;right=0;bottom=0;" vertex="1" parent="tirVqSWpJ9YYcZPwYmM--33">
          <mxGeometry y="90" width="190" height="30" as="geometry" />
        </mxCell>
        <mxCell id="tirVqSWpJ9YYcZPwYmM--41" value="FK2" style="shape=partialRectangle;connectable=0;fillColor=none;top=0;left=0;bottom=0;right=0;editable=1;overflow=hidden;whiteSpace=wrap;html=1;" vertex="1" parent="tirVqSWpJ9YYcZPwYmM--40">
          <mxGeometry width="30" height="30" as="geometry">
            <mxRectangle width="30" height="30" as="alternateBounds" />
          </mxGeometry>
        </mxCell>
        <mxCell id="tirVqSWpJ9YYcZPwYmM--42" value="customer_key" style="shape=partialRectangle;connectable=0;fillColor=none;top=0;left=0;bottom=0;right=0;align=left;spacingLeft=6;overflow=hidden;whiteSpace=wrap;html=1;" vertex="1" parent="tirVqSWpJ9YYcZPwYmM--40">
          <mxGeometry x="30" width="160" height="30" as="geometry">
            <mxRectangle width="160" height="30" as="alternateBounds" />
          </mxGeometry>
        </mxCell>
        <mxCell id="tirVqSWpJ9YYcZPwYmM--43" style="shape=tableRow;horizontal=0;startSize=0;swimlaneHead=0;swimlaneBody=0;fillColor=none;collapsible=0;dropTarget=0;points=[[0,0.5],[1,0.5]];portConstraint=eastwest;top=0;left=0;right=0;bottom=0;" vertex="1" parent="tirVqSWpJ9YYcZPwYmM--33">
          <mxGeometry y="120" width="190" height="30" as="geometry" />
        </mxCell>
        <mxCell id="tirVqSWpJ9YYcZPwYmM--44" style="shape=partialRectangle;connectable=0;fillColor=none;top=0;left=0;bottom=0;right=0;editable=1;overflow=hidden;whiteSpace=wrap;html=1;" vertex="1" parent="tirVqSWpJ9YYcZPwYmM--43">
          <mxGeometry width="30" height="30" as="geometry">
            <mxRectangle width="30" height="30" as="alternateBounds" />
          </mxGeometry>
        </mxCell>
        <mxCell id="tirVqSWpJ9YYcZPwYmM--45" value="order_date" style="shape=partialRectangle;connectable=0;fillColor=none;top=0;left=0;bottom=0;right=0;align=left;spacingLeft=6;overflow=hidden;whiteSpace=wrap;html=1;" vertex="1" parent="tirVqSWpJ9YYcZPwYmM--43">
          <mxGeometry x="30" width="160" height="30" as="geometry">
            <mxRectangle width="160" height="30" as="alternateBounds" />
          </mxGeometry>
        </mxCell>
        <mxCell id="tirVqSWpJ9YYcZPwYmM--46" style="shape=tableRow;horizontal=0;startSize=0;swimlaneHead=0;swimlaneBody=0;fillColor=none;collapsible=0;dropTarget=0;points=[[0,0.5],[1,0.5]];portConstraint=eastwest;top=0;left=0;right=0;bottom=0;" vertex="1" parent="tirVqSWpJ9YYcZPwYmM--33">
          <mxGeometry y="150" width="190" height="30" as="geometry" />
        </mxCell>
        <mxCell id="tirVqSWpJ9YYcZPwYmM--47" style="shape=partialRectangle;connectable=0;fillColor=none;top=0;left=0;bottom=0;right=0;editable=1;overflow=hidden;whiteSpace=wrap;html=1;" vertex="1" parent="tirVqSWpJ9YYcZPwYmM--46">
          <mxGeometry width="30" height="30" as="geometry">
            <mxRectangle width="30" height="30" as="alternateBounds" />
          </mxGeometry>
        </mxCell>
        <mxCell id="tirVqSWpJ9YYcZPwYmM--48" value="shipping_date" style="shape=partialRectangle;connectable=0;fillColor=none;top=0;left=0;bottom=0;right=0;align=left;spacingLeft=6;overflow=hidden;whiteSpace=wrap;html=1;" vertex="1" parent="tirVqSWpJ9YYcZPwYmM--46">
          <mxGeometry x="30" width="160" height="30" as="geometry">
            <mxRectangle width="160" height="30" as="alternateBounds" />
          </mxGeometry>
        </mxCell>
        <mxCell id="tirVqSWpJ9YYcZPwYmM--49" style="shape=tableRow;horizontal=0;startSize=0;swimlaneHead=0;swimlaneBody=0;fillColor=none;collapsible=0;dropTarget=0;points=[[0,0.5],[1,0.5]];portConstraint=eastwest;top=0;left=0;right=0;bottom=0;" vertex="1" parent="tirVqSWpJ9YYcZPwYmM--33">
          <mxGeometry y="180" width="190" height="30" as="geometry" />
        </mxCell>
        <mxCell id="tirVqSWpJ9YYcZPwYmM--50" style="shape=partialRectangle;connectable=0;fillColor=none;top=0;left=0;bottom=0;right=0;editable=1;overflow=hidden;whiteSpace=wrap;html=1;" vertex="1" parent="tirVqSWpJ9YYcZPwYmM--49">
          <mxGeometry width="30" height="30" as="geometry">
            <mxRectangle width="30" height="30" as="alternateBounds" />
          </mxGeometry>
        </mxCell>
        <mxCell id="tirVqSWpJ9YYcZPwYmM--51" value="due_date" style="shape=partialRectangle;connectable=0;fillColor=none;top=0;left=0;bottom=0;right=0;align=left;spacingLeft=6;overflow=hidden;whiteSpace=wrap;html=1;" vertex="1" parent="tirVqSWpJ9YYcZPwYmM--49">
          <mxGeometry x="30" width="160" height="30" as="geometry">
            <mxRectangle width="160" height="30" as="alternateBounds" />
          </mxGeometry>
        </mxCell>
        <mxCell id="tirVqSWpJ9YYcZPwYmM--52" style="shape=tableRow;horizontal=0;startSize=0;swimlaneHead=0;swimlaneBody=0;fillColor=none;collapsible=0;dropTarget=0;points=[[0,0.5],[1,0.5]];portConstraint=eastwest;top=0;left=0;right=0;bottom=0;" vertex="1" parent="tirVqSWpJ9YYcZPwYmM--33">
          <mxGeometry y="210" width="190" height="30" as="geometry" />
        </mxCell>
        <mxCell id="tirVqSWpJ9YYcZPwYmM--53" style="shape=partialRectangle;connectable=0;fillColor=none;top=0;left=0;bottom=0;right=0;editable=1;overflow=hidden;whiteSpace=wrap;html=1;" vertex="1" parent="tirVqSWpJ9YYcZPwYmM--52">
          <mxGeometry width="30" height="30" as="geometry">
            <mxRectangle width="30" height="30" as="alternateBounds" />
          </mxGeometry>
        </mxCell>
        <mxCell id="tirVqSWpJ9YYcZPwYmM--54" value="sales_amount" style="shape=partialRectangle;connectable=0;fillColor=none;top=0;left=0;bottom=0;right=0;align=left;spacingLeft=6;overflow=hidden;whiteSpace=wrap;html=1;" vertex="1" parent="tirVqSWpJ9YYcZPwYmM--52">
          <mxGeometry x="30" width="160" height="30" as="geometry">
            <mxRectangle width="160" height="30" as="alternateBounds" />
          </mxGeometry>
        </mxCell>
        <mxCell id="tirVqSWpJ9YYcZPwYmM--55" style="shape=tableRow;horizontal=0;startSize=0;swimlaneHead=0;swimlaneBody=0;fillColor=none;collapsible=0;dropTarget=0;points=[[0,0.5],[1,0.5]];portConstraint=eastwest;top=0;left=0;right=0;bottom=0;" vertex="1" parent="tirVqSWpJ9YYcZPwYmM--33">
          <mxGeometry y="240" width="190" height="30" as="geometry" />
        </mxCell>
        <mxCell id="tirVqSWpJ9YYcZPwYmM--56" style="shape=partialRectangle;connectable=0;fillColor=none;top=0;left=0;bottom=0;right=0;editable=1;overflow=hidden;whiteSpace=wrap;html=1;" vertex="1" parent="tirVqSWpJ9YYcZPwYmM--55">
          <mxGeometry width="30" height="30" as="geometry">
            <mxRectangle width="30" height="30" as="alternateBounds" />
          </mxGeometry>
        </mxCell>
        <mxCell id="tirVqSWpJ9YYcZPwYmM--57" value="quantity" style="shape=partialRectangle;connectable=0;fillColor=none;top=0;left=0;bottom=0;right=0;align=left;spacingLeft=6;overflow=hidden;whiteSpace=wrap;html=1;" vertex="1" parent="tirVqSWpJ9YYcZPwYmM--55">
          <mxGeometry x="30" width="160" height="30" as="geometry">
            <mxRectangle width="160" height="30" as="alternateBounds" />
          </mxGeometry>
        </mxCell>
        <mxCell id="tirVqSWpJ9YYcZPwYmM--58" style="shape=tableRow;horizontal=0;startSize=0;swimlaneHead=0;swimlaneBody=0;fillColor=none;collapsible=0;dropTarget=0;points=[[0,0.5],[1,0.5]];portConstraint=eastwest;top=0;left=0;right=0;bottom=0;" vertex="1" parent="tirVqSWpJ9YYcZPwYmM--33">
          <mxGeometry y="270" width="190" height="30" as="geometry" />
        </mxCell>
        <mxCell id="tirVqSWpJ9YYcZPwYmM--59" style="shape=partialRectangle;connectable=0;fillColor=none;top=0;left=0;bottom=0;right=0;editable=1;overflow=hidden;whiteSpace=wrap;html=1;" vertex="1" parent="tirVqSWpJ9YYcZPwYmM--58">
          <mxGeometry width="30" height="30" as="geometry">
            <mxRectangle width="30" height="30" as="alternateBounds" />
          </mxGeometry>
        </mxCell>
        <mxCell id="tirVqSWpJ9YYcZPwYmM--60" value="price" style="shape=partialRectangle;connectable=0;fillColor=none;top=0;left=0;bottom=0;right=0;align=left;spacingLeft=6;overflow=hidden;whiteSpace=wrap;html=1;" vertex="1" parent="tirVqSWpJ9YYcZPwYmM--58">
          <mxGeometry x="30" width="160" height="30" as="geometry">
            <mxRectangle width="160" height="30" as="alternateBounds" />
          </mxGeometry>
        </mxCell>
        <mxCell id="tirVqSWpJ9YYcZPwYmM--61" value="gold.dim_products" style="shape=table;startSize=30;container=1;collapsible=1;childLayout=tableLayout;fixedRows=1;rowLines=0;fontStyle=1;align=center;resizeLast=1;html=1;rounded=1;" vertex="1" parent="1">
          <mxGeometry x="643.6199999999999" y="190" width="180" height="360" as="geometry" />
        </mxCell>
        <mxCell id="tirVqSWpJ9YYcZPwYmM--62" value="" style="shape=tableRow;horizontal=0;startSize=0;swimlaneHead=0;swimlaneBody=0;fillColor=none;collapsible=0;dropTarget=0;points=[[0,0.5],[1,0.5]];portConstraint=eastwest;top=0;left=0;right=0;bottom=1;" vertex="1" parent="tirVqSWpJ9YYcZPwYmM--61">
          <mxGeometry y="30" width="180" height="30" as="geometry" />
        </mxCell>
        <mxCell id="tirVqSWpJ9YYcZPwYmM--63" value="PK" style="shape=partialRectangle;connectable=0;fillColor=none;top=0;left=0;bottom=0;right=0;fontStyle=1;overflow=hidden;whiteSpace=wrap;html=1;" vertex="1" parent="tirVqSWpJ9YYcZPwYmM--62">
          <mxGeometry width="30" height="30" as="geometry">
            <mxRectangle width="30" height="30" as="alternateBounds" />
          </mxGeometry>
        </mxCell>
        <mxCell id="tirVqSWpJ9YYcZPwYmM--64" value="product_key" style="shape=partialRectangle;connectable=0;fillColor=none;top=0;left=0;bottom=0;right=0;align=left;spacingLeft=6;fontStyle=5;overflow=hidden;whiteSpace=wrap;html=1;" vertex="1" parent="tirVqSWpJ9YYcZPwYmM--62">
          <mxGeometry x="30" width="150" height="30" as="geometry">
            <mxRectangle width="150" height="30" as="alternateBounds" />
          </mxGeometry>
        </mxCell>
        <mxCell id="tirVqSWpJ9YYcZPwYmM--65" value="" style="shape=tableRow;horizontal=0;startSize=0;swimlaneHead=0;swimlaneBody=0;fillColor=none;collapsible=0;dropTarget=0;points=[[0,0.5],[1,0.5]];portConstraint=eastwest;top=0;left=0;right=0;bottom=0;" vertex="1" parent="tirVqSWpJ9YYcZPwYmM--61">
          <mxGeometry y="60" width="180" height="30" as="geometry" />
        </mxCell>
        <mxCell id="tirVqSWpJ9YYcZPwYmM--66" value="" style="shape=partialRectangle;connectable=0;fillColor=none;top=0;left=0;bottom=0;right=0;editable=1;overflow=hidden;whiteSpace=wrap;html=1;" vertex="1" parent="tirVqSWpJ9YYcZPwYmM--65">
          <mxGeometry width="30" height="30" as="geometry">
            <mxRectangle width="30" height="30" as="alternateBounds" />
          </mxGeometry>
        </mxCell>
        <mxCell id="tirVqSWpJ9YYcZPwYmM--67" value="product_id" style="shape=partialRectangle;connectable=0;fillColor=none;top=0;left=0;bottom=0;right=0;align=left;spacingLeft=6;overflow=hidden;whiteSpace=wrap;html=1;" vertex="1" parent="tirVqSWpJ9YYcZPwYmM--65">
          <mxGeometry x="30" width="150" height="30" as="geometry">
            <mxRectangle width="150" height="30" as="alternateBounds" />
          </mxGeometry>
        </mxCell>
        <mxCell id="tirVqSWpJ9YYcZPwYmM--68" value="" style="shape=tableRow;horizontal=0;startSize=0;swimlaneHead=0;swimlaneBody=0;fillColor=none;collapsible=0;dropTarget=0;points=[[0,0.5],[1,0.5]];portConstraint=eastwest;top=0;left=0;right=0;bottom=0;" vertex="1" parent="tirVqSWpJ9YYcZPwYmM--61">
          <mxGeometry y="90" width="180" height="30" as="geometry" />
        </mxCell>
        <mxCell id="tirVqSWpJ9YYcZPwYmM--69" value="" style="shape=partialRectangle;connectable=0;fillColor=none;top=0;left=0;bottom=0;right=0;editable=1;overflow=hidden;whiteSpace=wrap;html=1;" vertex="1" parent="tirVqSWpJ9YYcZPwYmM--68">
          <mxGeometry width="30" height="30" as="geometry">
            <mxRectangle width="30" height="30" as="alternateBounds" />
          </mxGeometry>
        </mxCell>
        <mxCell id="tirVqSWpJ9YYcZPwYmM--70" value="product_number" style="shape=partialRectangle;connectable=0;fillColor=none;top=0;left=0;bottom=0;right=0;align=left;spacingLeft=6;overflow=hidden;whiteSpace=wrap;html=1;" vertex="1" parent="tirVqSWpJ9YYcZPwYmM--68">
          <mxGeometry x="30" width="150" height="30" as="geometry">
            <mxRectangle width="150" height="30" as="alternateBounds" />
          </mxGeometry>
        </mxCell>
        <mxCell id="tirVqSWpJ9YYcZPwYmM--71" value="" style="shape=tableRow;horizontal=0;startSize=0;swimlaneHead=0;swimlaneBody=0;fillColor=none;collapsible=0;dropTarget=0;points=[[0,0.5],[1,0.5]];portConstraint=eastwest;top=0;left=0;right=0;bottom=0;" vertex="1" parent="tirVqSWpJ9YYcZPwYmM--61">
          <mxGeometry y="120" width="180" height="30" as="geometry" />
        </mxCell>
        <mxCell id="tirVqSWpJ9YYcZPwYmM--72" value="" style="shape=partialRectangle;connectable=0;fillColor=none;top=0;left=0;bottom=0;right=0;editable=1;overflow=hidden;whiteSpace=wrap;html=1;" vertex="1" parent="tirVqSWpJ9YYcZPwYmM--71">
          <mxGeometry width="30" height="30" as="geometry">
            <mxRectangle width="30" height="30" as="alternateBounds" />
          </mxGeometry>
        </mxCell>
        <mxCell id="tirVqSWpJ9YYcZPwYmM--73" value="product_name" style="shape=partialRectangle;connectable=0;fillColor=none;top=0;left=0;bottom=0;right=0;align=left;spacingLeft=6;overflow=hidden;whiteSpace=wrap;html=1;" vertex="1" parent="tirVqSWpJ9YYcZPwYmM--71">
          <mxGeometry x="30" width="150" height="30" as="geometry">
            <mxRectangle width="150" height="30" as="alternateBounds" />
          </mxGeometry>
        </mxCell>
        <mxCell id="tirVqSWpJ9YYcZPwYmM--74" style="shape=tableRow;horizontal=0;startSize=0;swimlaneHead=0;swimlaneBody=0;fillColor=none;collapsible=0;dropTarget=0;points=[[0,0.5],[1,0.5]];portConstraint=eastwest;top=0;left=0;right=0;bottom=0;" vertex="1" parent="tirVqSWpJ9YYcZPwYmM--61">
          <mxGeometry y="150" width="180" height="30" as="geometry" />
        </mxCell>
        <mxCell id="tirVqSWpJ9YYcZPwYmM--75" style="shape=partialRectangle;connectable=0;fillColor=none;top=0;left=0;bottom=0;right=0;editable=1;overflow=hidden;whiteSpace=wrap;html=1;" vertex="1" parent="tirVqSWpJ9YYcZPwYmM--74">
          <mxGeometry width="30" height="30" as="geometry">
            <mxRectangle width="30" height="30" as="alternateBounds" />
          </mxGeometry>
        </mxCell>
        <mxCell id="tirVqSWpJ9YYcZPwYmM--76" value="category_id" style="shape=partialRectangle;connectable=0;fillColor=none;top=0;left=0;bottom=0;right=0;align=left;spacingLeft=6;overflow=hidden;whiteSpace=wrap;html=1;" vertex="1" parent="tirVqSWpJ9YYcZPwYmM--74">
          <mxGeometry x="30" width="150" height="30" as="geometry">
            <mxRectangle width="150" height="30" as="alternateBounds" />
          </mxGeometry>
        </mxCell>
        <mxCell id="tirVqSWpJ9YYcZPwYmM--77" style="shape=tableRow;horizontal=0;startSize=0;swimlaneHead=0;swimlaneBody=0;fillColor=none;collapsible=0;dropTarget=0;points=[[0,0.5],[1,0.5]];portConstraint=eastwest;top=0;left=0;right=0;bottom=0;" vertex="1" parent="tirVqSWpJ9YYcZPwYmM--61">
          <mxGeometry y="180" width="180" height="30" as="geometry" />
        </mxCell>
        <mxCell id="tirVqSWpJ9YYcZPwYmM--78" style="shape=partialRectangle;connectable=0;fillColor=none;top=0;left=0;bottom=0;right=0;editable=1;overflow=hidden;whiteSpace=wrap;html=1;" vertex="1" parent="tirVqSWpJ9YYcZPwYmM--77">
          <mxGeometry width="30" height="30" as="geometry">
            <mxRectangle width="30" height="30" as="alternateBounds" />
          </mxGeometry>
        </mxCell>
        <mxCell id="tirVqSWpJ9YYcZPwYmM--79" value="category" style="shape=partialRectangle;connectable=0;fillColor=none;top=0;left=0;bottom=0;right=0;align=left;spacingLeft=6;overflow=hidden;whiteSpace=wrap;html=1;" vertex="1" parent="tirVqSWpJ9YYcZPwYmM--77">
          <mxGeometry x="30" width="150" height="30" as="geometry">
            <mxRectangle width="150" height="30" as="alternateBounds" />
          </mxGeometry>
        </mxCell>
        <mxCell id="tirVqSWpJ9YYcZPwYmM--80" style="shape=tableRow;horizontal=0;startSize=0;swimlaneHead=0;swimlaneBody=0;fillColor=none;collapsible=0;dropTarget=0;points=[[0,0.5],[1,0.5]];portConstraint=eastwest;top=0;left=0;right=0;bottom=0;" vertex="1" parent="tirVqSWpJ9YYcZPwYmM--61">
          <mxGeometry y="210" width="180" height="30" as="geometry" />
        </mxCell>
        <mxCell id="tirVqSWpJ9YYcZPwYmM--81" style="shape=partialRectangle;connectable=0;fillColor=none;top=0;left=0;bottom=0;right=0;editable=1;overflow=hidden;whiteSpace=wrap;html=1;" vertex="1" parent="tirVqSWpJ9YYcZPwYmM--80">
          <mxGeometry width="30" height="30" as="geometry">
            <mxRectangle width="30" height="30" as="alternateBounds" />
          </mxGeometry>
        </mxCell>
        <mxCell id="tirVqSWpJ9YYcZPwYmM--82" value="subcategory" style="shape=partialRectangle;connectable=0;fillColor=none;top=0;left=0;bottom=0;right=0;align=left;spacingLeft=6;overflow=hidden;whiteSpace=wrap;html=1;" vertex="1" parent="tirVqSWpJ9YYcZPwYmM--80">
          <mxGeometry x="30" width="150" height="30" as="geometry">
            <mxRectangle width="150" height="30" as="alternateBounds" />
          </mxGeometry>
        </mxCell>
        <mxCell id="tirVqSWpJ9YYcZPwYmM--83" style="shape=tableRow;horizontal=0;startSize=0;swimlaneHead=0;swimlaneBody=0;fillColor=none;collapsible=0;dropTarget=0;points=[[0,0.5],[1,0.5]];portConstraint=eastwest;top=0;left=0;right=0;bottom=0;" vertex="1" parent="tirVqSWpJ9YYcZPwYmM--61">
          <mxGeometry y="240" width="180" height="30" as="geometry" />
        </mxCell>
        <mxCell id="tirVqSWpJ9YYcZPwYmM--84" style="shape=partialRectangle;connectable=0;fillColor=none;top=0;left=0;bottom=0;right=0;editable=1;overflow=hidden;whiteSpace=wrap;html=1;" vertex="1" parent="tirVqSWpJ9YYcZPwYmM--83">
          <mxGeometry width="30" height="30" as="geometry">
            <mxRectangle width="30" height="30" as="alternateBounds" />
          </mxGeometry>
        </mxCell>
        <mxCell id="tirVqSWpJ9YYcZPwYmM--85" value="maintenance" style="shape=partialRectangle;connectable=0;fillColor=none;top=0;left=0;bottom=0;right=0;align=left;spacingLeft=6;overflow=hidden;whiteSpace=wrap;html=1;" vertex="1" parent="tirVqSWpJ9YYcZPwYmM--83">
          <mxGeometry x="30" width="150" height="30" as="geometry">
            <mxRectangle width="150" height="30" as="alternateBounds" />
          </mxGeometry>
        </mxCell>
        <mxCell id="tirVqSWpJ9YYcZPwYmM--86" style="shape=tableRow;horizontal=0;startSize=0;swimlaneHead=0;swimlaneBody=0;fillColor=none;collapsible=0;dropTarget=0;points=[[0,0.5],[1,0.5]];portConstraint=eastwest;top=0;left=0;right=0;bottom=0;" vertex="1" parent="tirVqSWpJ9YYcZPwYmM--61">
          <mxGeometry y="270" width="180" height="30" as="geometry" />
        </mxCell>
        <mxCell id="tirVqSWpJ9YYcZPwYmM--87" style="shape=partialRectangle;connectable=0;fillColor=none;top=0;left=0;bottom=0;right=0;editable=1;overflow=hidden;whiteSpace=wrap;html=1;" vertex="1" parent="tirVqSWpJ9YYcZPwYmM--86">
          <mxGeometry width="30" height="30" as="geometry">
            <mxRectangle width="30" height="30" as="alternateBounds" />
          </mxGeometry>
        </mxCell>
        <mxCell id="tirVqSWpJ9YYcZPwYmM--88" value="cost" style="shape=partialRectangle;connectable=0;fillColor=none;top=0;left=0;bottom=0;right=0;align=left;spacingLeft=6;overflow=hidden;whiteSpace=wrap;html=1;" vertex="1" parent="tirVqSWpJ9YYcZPwYmM--86">
          <mxGeometry x="30" width="150" height="30" as="geometry">
            <mxRectangle width="150" height="30" as="alternateBounds" />
          </mxGeometry>
        </mxCell>
        <mxCell id="tirVqSWpJ9YYcZPwYmM--89" style="shape=tableRow;horizontal=0;startSize=0;swimlaneHead=0;swimlaneBody=0;fillColor=none;collapsible=0;dropTarget=0;points=[[0,0.5],[1,0.5]];portConstraint=eastwest;top=0;left=0;right=0;bottom=0;" vertex="1" parent="tirVqSWpJ9YYcZPwYmM--61">
          <mxGeometry y="300" width="180" height="30" as="geometry" />
        </mxCell>
        <mxCell id="tirVqSWpJ9YYcZPwYmM--90" style="shape=partialRectangle;connectable=0;fillColor=none;top=0;left=0;bottom=0;right=0;editable=1;overflow=hidden;whiteSpace=wrap;html=1;" vertex="1" parent="tirVqSWpJ9YYcZPwYmM--89">
          <mxGeometry width="30" height="30" as="geometry">
            <mxRectangle width="30" height="30" as="alternateBounds" />
          </mxGeometry>
        </mxCell>
        <mxCell id="tirVqSWpJ9YYcZPwYmM--91" value="product_line" style="shape=partialRectangle;connectable=0;fillColor=none;top=0;left=0;bottom=0;right=0;align=left;spacingLeft=6;overflow=hidden;whiteSpace=wrap;html=1;" vertex="1" parent="tirVqSWpJ9YYcZPwYmM--89">
          <mxGeometry x="30" width="150" height="30" as="geometry">
            <mxRectangle width="150" height="30" as="alternateBounds" />
          </mxGeometry>
        </mxCell>
        <mxCell id="tirVqSWpJ9YYcZPwYmM--92" style="shape=tableRow;horizontal=0;startSize=0;swimlaneHead=0;swimlaneBody=0;fillColor=none;collapsible=0;dropTarget=0;points=[[0,0.5],[1,0.5]];portConstraint=eastwest;top=0;left=0;right=0;bottom=0;" vertex="1" parent="tirVqSWpJ9YYcZPwYmM--61">
          <mxGeometry y="330" width="180" height="30" as="geometry" />
        </mxCell>
        <mxCell id="tirVqSWpJ9YYcZPwYmM--93" style="shape=partialRectangle;connectable=0;fillColor=none;top=0;left=0;bottom=0;right=0;editable=1;overflow=hidden;whiteSpace=wrap;html=1;" vertex="1" parent="tirVqSWpJ9YYcZPwYmM--92">
          <mxGeometry width="30" height="30" as="geometry">
            <mxRectangle width="30" height="30" as="alternateBounds" />
          </mxGeometry>
        </mxCell>
        <mxCell id="tirVqSWpJ9YYcZPwYmM--94" value="start_date" style="shape=partialRectangle;connectable=0;fillColor=none;top=0;left=0;bottom=0;right=0;align=left;spacingLeft=6;overflow=hidden;whiteSpace=wrap;html=1;" vertex="1" parent="tirVqSWpJ9YYcZPwYmM--92">
          <mxGeometry x="30" width="150" height="30" as="geometry">
            <mxRectangle width="150" height="30" as="alternateBounds" />
          </mxGeometry>
        </mxCell>
        <mxCell id="tirVqSWpJ9YYcZPwYmM--95" value="" style="edgeStyle=entityRelationEdgeStyle;fontSize=12;html=1;endArrow=ERzeroToMany;startArrow=ERmandOne;rounded=0;exitX=1;exitY=0.5;exitDx=0;exitDy=0;entryX=0;entryY=0.5;entryDx=0;entryDy=0;" edge="1" parent="1" source="tirVqSWpJ9YYcZPwYmM--3" target="tirVqSWpJ9YYcZPwYmM--40">
          <mxGeometry width="100" height="100" relative="1" as="geometry">
            <mxPoint x="290" y="630" as="sourcePoint" />
            <mxPoint x="390" y="530" as="targetPoint" />
          </mxGeometry>
        </mxCell>
        <mxCell id="tirVqSWpJ9YYcZPwYmM--96" value="" style="edgeStyle=entityRelationEdgeStyle;fontSize=12;html=1;endArrow=ERzeroToMany;startArrow=ERmandOne;rounded=0;exitX=0;exitY=0.5;exitDx=0;exitDy=0;entryX=1;entryY=0.5;entryDx=0;entryDy=0;" edge="1" parent="1" source="tirVqSWpJ9YYcZPwYmM--62" target="tirVqSWpJ9YYcZPwYmM--37">
          <mxGeometry width="100" height="100" relative="1" as="geometry">
            <mxPoint x="470" y="530" as="sourcePoint" />
            <mxPoint x="550" y="590" as="targetPoint" />
          </mxGeometry>
        </mxCell>
        <mxCell id="tirVqSWpJ9YYcZPwYmM--97" value="&lt;div style=&quot;line-height: 60%;&quot;&gt;&lt;h1 style=&quot;margin-top: 0px; line-height: 60%;&quot;&gt;&lt;font style=&quot;font-size: 11px; line-height: 60%;&quot;&gt;Sales Calculation&lt;/font&gt;&lt;/h1&gt;&lt;p&gt;&lt;font style=&quot;font-size: 11px; line-height: 60%;&quot;&gt;Sales = Quantity * Price&lt;/font&gt;&lt;/p&gt;&lt;/div&gt;" style="text;html=1;whiteSpace=wrap;overflow=hidden;rounded=0;" vertex="1" parent="1">
          <mxGeometry x="455" y="510" width="130" height="50" as="geometry" />
        </mxCell>
        <mxCell id="tirVqSWpJ9YYcZPwYmM--98" value="" style="endArrow=none;dashed=1;html=1;dashPattern=1 3;strokeWidth=2;rounded=0;entryX=0.469;entryY=0.016;entryDx=0;entryDy=0;entryPerimeter=0;" edge="1" parent="1" source="tirVqSWpJ9YYcZPwYmM--52" target="tirVqSWpJ9YYcZPwYmM--97">
          <mxGeometry width="50" height="50" relative="1" as="geometry">
            <mxPoint x="230" y="600" as="sourcePoint" />
            <mxPoint x="280" y="550" as="targetPoint" />
          </mxGeometry>
        </mxCell>
      </root>
    </mxGraphModel>
  </diagram>
</mxfile>
